**ABCDEFGHIJKLMNOPQRSTUVWXYZabcdefghijklmnopqrstuvwxyz**************************
**PARASOLID !"#$%&'()*+,-./:;<=>?@[\]^_`{|}~0123456789**************************
**PART1;
MC=x86;
MC_MODEL=x86 Family 15 Model 6 Stepping 5, GenuineIntel;
MC_ID=unknown;
OS=Windows_NT;
OS_RELEASE=unknown;
FRU=Parasolid Version 17.1, build 244,  6- 8-2006;
APPL=SolidWorks 2007-2006198;
SITE=;
USER=unknown;
FORMAT=text;
GUISE=transmit;
KEY=TO3B_(TO220);
FILE=TO3B_(TO220).x_t;
DATE=Sat Mar 16 12:57:52 2013;
**PART2;
SCH=SCH_1701244_17106;
USFLD_SIZE=0;
**PART3;
**END_OF_HEADER*****************************************************************
T51 : TRANSMIT FILE created by modeller version 170124423 SCH_1701244_17106_1300
6186 0 12 255 1 2212 2 3 0 0 0 0 1e3 1e-8 0 4 0 1 0 1 1 5 6 7 8 9 10 11 81 255 2
 2 1809 12 1 0 0 0 0 13 0 70 11 CI9 list_type0 0 1 uI10 notransmit0 0 1 lCCCDCCD
I12 finger_index0 0 1 dI12 finger_block1012 0 CZ3 0 4 T1 0 0 3 20 1 14 14 13 255
 5 166 0 1 0 15 0 0 16 0 50 255 6 1495 0 17 18 0 0 +.002666846170922505 -.0284 -
.0029 .906307787036651 -.4226182617406965 0 .4226182617406965 .906307787036651 0
 30 255 7 1342 0 10 19 0 0 +.0029 -.0279 -.0029 0 0 -1 29 255 8 1677 0 11 20 0 .
0052 -.0064 -688290689011427e-49 19 255 9 44 0 1 16 0 21 V16 255 10 1340 0 ?22 0
 23 7 0 0 1 18 255 11 1675 0 24 0 25 8 ?1 17 255 24 0 26 27 28 11 29 30 0 31 +18
 25 1324 0 32 11 33 20 ?1 17 32 0 34 35 36 25 37 38 0 39 +18 33 1315 0 40 25 41
 42 ?1 29 20 1327 0 25 42 8 .0029 -.0279 -.0025 29 42 1318 0 33 43 20 .0021 -.02
79 -.0025 29 43 1302 0 41 44 42 .0021 -.0279 -.0029 18 41 1299 0 45 33 46 43 ?1
 29 44 1298 0 46 47 43 .0029 -.0279 -.0029 18 46 1295 0 22 41 48 44 ?1 29 47 128
4 0 48 49 44 .0023331538290775 -.0284 -.0025 18 48 1282 0 50 46 51 47 ?1 29 49 1
281 0 51 52 47 .002666846170922505 -.0284 -.0025 18 51 1279 0 37 48 53 49 ?1 29
 52 1278 0 53 54 49 .002666846170922505 -.0284 -.0029 18 53 1276 0 55 51 56 52 ?
1 29 54 1275 0 56 57 52 .0023331538290775 -.0284 -.0029 18 56 1273 0 58 53 59 54
 ?1 29 57 1255 0 59 60 54 -4e-4 -.0279 -.0029 18 59 1252 0 61 56 62 57 ?1 29 60
 1246 0 62 63 57 4e-4 -.0279 -.0029 18 62 1243 0 64 59 65 60 ?1 29 63 1230 0 65
 66 60 4e-4 -.0279 -.0025 18 65 1227 0 67 62 68 63 ?1 29 66 1226 0 68 69 63 -4e-
4 -.0279 -.0025 18 68 1223 0 70 65 71 66 ?1 29 69 1212 0 71 72 66 -.000166846170
9225025 -.0284 -.0025 18 71 1210 0 73 68 74 69 ?1 29 72 1209 0 74 75 69 .0001668
461709225025 -.0284 -.0025 18 74 1207 0 76 71 77 72 ?1 29 75 1206 0 77 78 72 .00
01668461709225025 -.0284 -.0029 18 77 1204 0 79 74 80 75 ?1 29 78 1203 0 80 81 7
5 -.0001668461709225025 -.0284 -.0029 18 80 1201 0 82 77 83 78 ?1 29 81 1183 0 8
3 84 78 -.0021 -.0279 -.0025 18 83 1180 0 85 80 86 81 ?1 29 84 1174 0 86 87 81 -
.0029 -.0279 -.0025 18 86 1171 0 88 83 89 84 ?1 29 87 1158 0 89 90 84 -.0029 -.0
279 -.0029 18 89 1155 0 91 86 92 87 ?1 29 90 1154 0 92 93 87 -.0021 -.0279 -.002
9 18 92 1151 0 94 89 95 90 ?1 29 93 1140 0 95 96 90 -.002666846170922505 -.0284
 -.0025 18 95 1138 0 97 92 98 93 ?1 29 96 1137 0 98 99 93 -.0023331538290775 -.0
284 -.0025 18 98 1135 0 100 95 101 96 ?1 29 99 1134 0 101 102 96 -.0023331538290
775 -.0284 -.0029 18 101 1132 0 103 98 104 99 ?1 29 102 1131 0 104 105 99 -.0026
66846170922505 -.0284 -.0029 18 104 1129 0 106 101 107 102 ?1 29 105 965 0 107 1
08 102 -.0029 -.0184 -.0025 18 107 962 0 109 104 110 105 1e-8 1 29 108 956 0 110
 111 105 -.0021 -.0184 -.0029 18 110 953 0 112 107 113 108 1e-8 1 29 111 950 0 1
13 114 108 -.0029 -.0184 -.0029 18 113 948 0 115 110 116 111 1e-8 1 29 114 832 0
 116 117 111 -4e-4 -.0184 -.0025 18 116 829 0 118 113 119 114 1e-8 1 29 117 823
 0 119 120 114 4e-4 -.0184 -.0029 18 119 820 0 121 116 122 117 1e-8 1 29 120 817
 0 122 123 117 -4e-4 -.0184 -.0029 18 122 815 0 124 119 125 120 1e-8 1 29 123 69
9 0 125 126 120 .0021 -.0184 -.0025 18 125 696 0 127 122 128 123 1e-8 1 29 126 6
90 0 128 129 123 .0029 -.0184 -.0029 18 128 687 0 130 125 131 126 1e-8 1 29 129
 684 0 131 132 126 .0021 -.0184 -.0029 18 131 682 0 133 128 134 129 1e-8 1 29 13
2 532 0 134 135 129 .00185 -.0149 -.0029 18 134 529 0 136 131 137 132 ?1 29 135
 417 0 137 138 132 -65e-5 -.0149 -.0029 18 137 414 0 139 134 140 135 ?1 29 138 2
96 0 140 141 135 -.00315 -.0149 -.0025 18 140 293 0 142 137 143 138 1e-8 1 29 14
1 287 0 143 144 138 -.00315 -.0149 -.0029 18 143 284 0 145 140 146 141 1e-8 1 29
 144 281 0 146 147 141 -.00185 -.0149 -.0029 18 146 279 0 148 143 149 144 1e-8 1
 29 147 118 0 150 151 144 -.0052 -.01472518297014122 -1583625989427785e-49 18 15
0 101 0 152 153 154 147 ?1 29 151 121 0 154 155 147 -.0052 -.0064 -.00122 18 154
 104 0 156 150 157 151 ?1 29 155 122 0 157 158 151 -.0052 -.00680272697576805 -.
004499948006545435 18 157 105 0 159 154 160 155 ?1 29 158 123 0 160 161 155 -.00
52 -.01470355108654884 -.004499948006545435 18 160 106 0 162 157 163 158 ?1 29 1
61 124 0 163 164 158 -.0052 -.0149 -.0029 18 163 107 0 165 160 166 161 ?1 29 164
 125 0 166 167 161 -.0052 -.0149 -.0025 18 166 108 0 168 163 169 164 ?1 29 167 4
3 0 149 170 164 .0052 -.01472518297014122 -1583625989427785e-49 18 149 42 0 171
 146 172 167 ?1 29 170 35 0 172 173 167 .0052 -.00680272697576805 -.004499948006
545435 18 172 34 0 174 149 175 170 ?1 29 173 33 0 175 176 170 .0052 -.0147035510
8654884 -.004499948006545435 18 175 32 0 177 172 178 173 ?1 29 176 31 0 178 179
 173 .0052 -.0149 -.0029 18 178 30 0 180 175 153 176 ?1 29 179 29 0 153 181 176
 .0052 -.0149 -.0025 18 153 28 0 182 178 150 179 ?1 29 181 388 0 183 184 179 -.0
0185 -.0149 -.0025 18 183 339 0 185 186 187 181 1e-8 1 29 184 391 0 169 188 181
 -.00315 -.0184 -.0025 18 169 343 0 189 166 190 184 ?1 29 188 392 0 190 191 184
 -.00185 -.0184 -.0025 18 190 342 0 192 169 193 188 ?1 29 191 393 0 193 194 188
 -.00185 -.0184 -.0029 18 193 341 0 195 190 186 191 ?1 29 194 394 0 186 196 191
 -.00315 -.0184 -.0029 18 186 338 0 197 193 183 194 ?1 29 196 516 0 198 199 194
 -65e-5 -.0149 -.0025 18 198 469 0 200 201 202 196 ?1 29 199 517 0 202 203 196 6
5e-5 -.0149 -.0025 18 202 468 0 204 198 205 199 ?1 29 203 518 0 205 206 199 65e-
5 -.0149 -.0029 18 205 466 0 207 202 208 203 ?1 29 206 520 0 187 209 203 -65e-5
 -.0184 -.0025 18 187 472 0 210 183 211 206 ?1 29 209 521 0 211 212 206 65e-5 -.
0184 -.0025 18 211 471 0 213 187 214 209 ?1 29 212 522 0 214 215 209 65e-5 -.018
4 -.0029 18 214 470 0 216 211 201 212 ?1 29 215 523 0 201 217 212 -65e-5 -.0184
 -.0029 18 201 467 0 218 214 198 215 ?1 29 217 631 0 219 220 215 .00185 -.0149 -
.0025 18 219 584 0 221 222 223 217 ?1 29 220 632 0 223 224 217 .00315 -.0149 -.0
025 18 223 583 0 225 219 226 220 ?1 29 224 633 0 226 227 220 .00315 -.0149 -.002
9 18 226 581 0 228 223 229 224 ?1 29 227 635 0 208 230 224 .00185 -.0184 -.0025
 18 208 587 0 231 205 232 227 ?1 29 230 636 0 232 233 227 .00315 -.0184 -.0025 1
8 232 586 0 234 208 235 230 ?1 29 233 637 0 235 236 230 .00315 -.0184 -.0029 18
 235 585 0 237 232 222 233 ?1 29 236 638 0 222 238 233 .00185 -.0184 -.0029 18 2
22 582 0 239 235 219 236 ?1 29 238 791 0 229 240 236 .0029 -.0184 -.0025 18 229
 742 0 35 226 241 238 1e-8 1 29 240 924 0 241 242 238 4e-4 -.0184 -.0025 18 241
 875 0 243 229 244 240 1e-8 1 29 242 1057 0 244 245 240 -.0021 -.0184 -.0025 18
 244 1008 0 246 241 247 242 1e-8 1 29 245 1653 0 248 249 242 -.0052 -.0064 0 18
 248 1608 0 250 251 252 245 ?1 29 249 1655 0 247 253 245 -.00519 0 -.00122 18 24
7 1601 0 254 244 255 249 ?1 29 253 1656 0 255 256 249 -.00519 0 -344145344505713
5e-50 18 255 1603 0 257 247 258 253 ?1 29 256 1657 0 258 259 253 -.00519 -.0064
 0 18 258 1605 0 260 255 251 256 ?1 29 259 1658 0 251 261 256 -.00519 -.0064 -.0
0122 18 251 1607 0 262 258 248 259 ?1 29 261 1790 0 263 264 259 .0052 -.0064 -.0
0122 18 263 1747 0 27 265 0 261 ?1 29 264 1794 0 252 266 261 .00519 -.0064 -.001
22 18 252 1741 0 267 248 268 264 ?1 29 266 1795 0 268 269 264 .00519 -.0064 0 18
 268 1744 0 28 252 270 266 ?1 29 269 1796 0 270 271 266 .00519 0 -34414534450571
35e-50 18 270 1745 0 272 268 265 269 ?1 29 271 1797 0 265 0 269 .00519 0 -.00122
 18 265 1746 0 273 270 263 271 ?1 17 273 0 274 272 267 265 275 276 0 277 -15 255
 274 1766 0 273 278 0 17 272 0 274 279 273 270 277 280 0 281 -17 267 0 274 273 2
79 252 28 282 0 283 -17 275 0 284 262 285 252 273 276 0 286 +16 276 1728 0 ?275
 280 287 288 0 0 1 17 277 0 289 254 290 265 272 280 0 285 +15 289 1702 0 277 291
 0 17 254 0 289 292 277 247 285 293 0 294 +17 290 0 289 277 292 270 257 295 0 0
 -16 280 1737 0 ?277 296 276 297 0 0 1 17 285 0 284 275 298 265 254 293 0 0 -15
 284 1707 0 275 15 0 17 298 0 284 285 262 247 299 300 0 0 -16 293 1699 0 ?254 30
1 295 302 0 0 1 16 301 1696 0 ?262 303 293 304 303 303 1 16 295 1684 0 ?257 293
 305 306 0 0 1 30 302 152 0 293 306 304 0 +.0052 0 -.00122 -1 0 0 30 306 151 0 2
95 307 302 0 +.0052 0 0 -1 0 0 30 304 153 0 303 302 308 0 +.0052 -.0064 -.00122
 -1 0 0 16 303 129 0 ?283 309 301 304 301 301 1 30 308 154 0 309 304 310 0 +.005
2 -.00680272697576805 -.004499948006545435 -1 0 0 16 309 130 0 ?311 312 303 308
 0 0 1 30 310 155 0 312 308 313 0 +.0052 -.01470355108654884 -.00449994800654543
5 -1 0 0 16 312 131 0 ?314 315 309 310 0 0 1 30 313 156 0 1 310 316 317 +.0052 -
.0149 -.0029 -1 0 0 30 316 157 0 1 313 318 319 +.0052 -.0149 -.0025 -1 0 0 141 2
55 317 320 321 322 313 133 255 320 286 0 315 318 323 0 +313 -.00315 -.0149 -.002
9 -.0052 -.0149 -.0029 .00835 .0104 141 321 324 325 317 313 141 322 318 317 325
 313 133 318 283 0 326 316 320 0 +313 .0052 -.0149 -.0029 .00315 -.0149 -.0029 0
 .00205 141 325 327 322 321 313 133 327 416 0 328 329 330 0 +313 -65e-5 -.0149 -
.0029 -.00185 -.0149 -.0029 .00585 .00705 16 328 415 0 ?148 331 315 327 0 0 1 30
 329 409 0 1 332 327 333 +-.00315 -.0184 -.0025 0 1 0 133 330 424 0 334 327 324
 0 +316 -65e-5 -.0149 -.0025 -.00185 -.0149 -.0025 .00585 .00705 16 334 423 0 ?1
85 335 336 330 0 0 1 133 324 531 0 331 330 337 0 +313 .00185 -.0149 -.0029 65e-5
 -.0149 -.0029 .00335 .00455 16 331 530 0 ?207 326 328 324 0 0 1 133 337 539 0 3
35 324 338 0 +316 .00185 -.0149 -.0025 65e-5 -.0149 -.0025 .00335 .00455 16 335
 538 0 ?204 339 334 337 0 0 1 133 338 686 0 340 337 341 0 +342 .00185 -.0184 -.0
029 .0021 -.0184 -.0029 0 25e-5 16 340 572 0 ?343 344 345 338 0 0 1 133 341 689
 0 345 338 346 0 +342 .0029 -.0184 -.0029 .00315 -.0184 -.0029 .00105 .0013 30 3
42 629 0 1 347 348 349 +.00185 -.0184 -.0029 1 0 0 30 347 630 0 350 351 342 0 +.
00185 -.0184 -.0025 542101086242752e-30 0 -1 30 348 628 0 344 342 352 0 +.00315
 -.0184 -.0025 0 0 1 141 349 341 353 353 342 141 353 338 349 349 342 16 344 575
 0 ?234 354 340 348 0 0 1 30 352 627 0 1 348 355 356 +.00185 -.0184 -.0025 -1 0
 0 30 355 626 0 357 352 358 0 +.00185 -.0149 -.0025 542101086242752e-30 0 -1 141
 356 359 360 360 352 133 359 698 0 354 346 361 0 +352 .0021 -.0184 -.0025 .00185
 -.0184 -.0025 -25e-5 0 141 360 346 356 356 352 133 346 695 0 362 341 359 0 +352
 .00315 -.0184 -.0025 .0029 -.0184 -.0025 -.0013 -.00105 16 362 578 0 ?363 364 3
54 346 0 0 1 17 363 0 365 366 234 229 367 362 0 368 +16 364 556 0 ?369 370 362 3
71 0 0 1 16 354 697 0 ?231 362 344 359 0 0 1 17 231 0 372 373 374 208 375 354 0
 376 +15 372 706 0 374 377 0 17 373 0 372 343 231 222 378 350 0 379 +17 374 0 37
2 231 343 125 380 381 0 375 -17 375 0 34 382 376 125 231 354 0 0 -17 376 0 34 37
5 221 208 369 364 0 378 -15 34 604 0 382 383 0 17 221 0 34 376 384 219 385 386 0
 369 +17 369 0 387 136 378 219 376 364 0 388 +17 378 0 387 369 379 208 373 350 0
 0 -15 387 592 0 136 389 0 17 379 0 387 378 136 222 390 391 0 0 -16 350 569 0 ?3
73 345 386 347 0 0 1 16 345 688 0 ?237 340 350 341 0 0 1 16 386 565 0 ?221 350 3
92 393 0 0 1 16 392 561 0 ?225 386 394 395 0 0 1 30 393 623 0 386 395 371 0 +.00
185 -.0149 -.0025 -1 0 0 30 395 624 0 392 358 393 0 +.00315 -.0149 -.0025 0 0 1
 30 371 622 0 364 393 396 0 +.00185 -.0184 -.0025 0 1 0 30 396 621 0 370 371 397
 0 +.00315 -.0184 -.0025 0 1 0 16 370 568 0 ?384 398 364 396 0 0 1 30 397 620 0
 398 396 399 0 +.00315 -.0184 -.0029 0 1 0 16 398 564 0 ?400 391 370 397 0 0 1 3
0 399 619 0 391 397 401 0 +.00185 -.0184 -.0029 0 1 0 16 391 560 0 ?390 402 398
 399 0 0 1 30 401 515 0 403 399 404 0 +-65e-5 -.0184 -.0025 0 0 -1 16 403 454 0
 ?405 406 407 401 0 0 1 30 404 514 0 1 401 408 409 +-65e-5 -.0184 -.0029 1 0 0 3
0 408 513 0 410 404 411 0 +65e-5 -.0184 -.0025 0 0 1 141 409 412 413 413 404 133
 412 822 0 406 414 415 0 +404 4e-4 -.0184 -.0029 65e-5 -.0184 -.0029 .00105 .001
3 141 413 414 409 409 404 133 414 819 0 416 417 412 0 +404 -65e-5 -.0184 -.0029
 -4e-4 -.0184 -.0029 0 25e-5 16 416 457 0 ?418 410 406 414 0 0 1 30 417 812 0 1
 419 414 420 +.0021 -.0284 -.0025 0 1 0 133 419 810 0 381 421 417 0 +422 .0021 -
.0184 -.0025 .0021 -.0184 -.0029 0 4e-4 141 420 423 420 420 417 133 423 1317 0 4
24 425 426 0 +417 .0021 -.0279 -.0025 .0021 -.0184 -.0025 5e-4 .01 16 424 1316 0
 ?127 427 428 423 0 0 1 30 425 1311 0 429 430 423 0 +.0023331538290775 -.0284 -.
0029 -.4226182617406965 .906307787036651 0 30 426 1321 0 431 423 432 0 +.0021 -.
0279 -.0025 0 0 1 16 431 1319 0 ?40 38 429 426 0 0 1 133 432 1326 0 427 426 433
 0 +434 .0029 -.0279 -.0025 .0029 -.0184 -.0025 5e-4 .01 16 427 1325 0 ?35 435 4
24 432 0 0 1 30 433 1330 0 38 432 19 0 +.002666846170922505 -.0284 -.0025 .42261
82617406965 .906307787036651 0 30 434 801 0 1 361 436 437 +.0029 -.0284 -.0025 0
 1 0 133 361 799 0 438 359 434 0 +351 .0029 -.0184 -.0029 .0029 -.0184 -.0025 -4
e-4 0 30 436 807 0 1 434 421 439 +.0029 -.0284 -.0029 0 1 0 141 437 432 437 437
 434 30 421 809 0 1 436 419 440 +.0021 -.0284 -.0029 0 1 0 141 439 441 439 439 4
36 133 441 1297 0 435 442 443 0 +436 .0029 -.0279 -.0029 .0029 -.0184 -.0029 5e-
4 .01 16 435 1296 0 ?130 444 427 441 0 0 1 30 442 1292 0 445 446 441 0 +.0023331
538290775 -.0284 -.0029 0 0 -1 133 443 1301 0 444 441 430 0 +421 .0021 -.0279 -.
0029 .0021 -.0184 -.0029 5e-4 .01 16 444 1300 0 ?133 357 435 443 0 0 1 30 430 13
05 0 447 443 425 0 +.002666846170922505 -.0284 -.0029 -.4226182617406965 -.90630
7787036651 0 16 447 1303 0 ?55 429 445 430 0 0 1 17 55 0 448 449 450 53 451 447
 0 452 +16 429 1309 0 ?45 431 447 425 0 0 1 16 445 1290 0 ?453 447 454 442 0 0 1
 17 453 0 455 452 456 56 457 445 0 449 +16 454 1285 0 ?458 445 459 446 0 0 1 17
 458 0 455 456 452 51 460 454 0 36 +16 459 1268 0 ?70 454 461 462 0 0 1 30 446 1
287 0 454 462 442 0 +.002666846170922505 -.0284 -.0025 0 0 1 30 462 1270 0 459 4
63 446 0 +-4e-4 -.0279 -.0025 -271050543121376e-30 0 1 30 463 1264 0 461 464 462
 0 +.0001668461709225025 -.0284 -.0029 -.4226182617406965 -.906307787036651 0 16
 461 1262 0 ?79 459 465 463 0 0 1 30 464 1258 0 465 466 463 0 +-.000166846170922
5025 -.0284 -.0029 -.4226182617406965 .906307787036651 0 16 465 1256 0 ?61 461 4
67 464 0 0 1 133 466 1254 0 468 469 464 0 +470 -4e-4 -.0279 -.0029 -4e-4 -.0184
 -.0029 5e-4 .01 16 468 1253 0 ?124 381 471 466 0 0 1 30 469 1249 0 467 472 466
 0 +4e-4 -.0279 -.0029 0 0 -1 30 470 942 0 1 473 474 475 +-4e-4 -.0284 -.0029 0
 1 0 30 473 940 0 1 476 470 477 +4e-4 -.0284 -.0029 0 1 0 133 474 943 0 478 470
 479 0 +480 -4e-4 -.0184 -.0025 -4e-4 -.0184 -.0029 0 4e-4 141 475 466 475 475 4
70 16 478 845 0 ?481 482 483 474 0 0 1 30 479 945 0 1 474 484 485 +-4e-4 -.0284
 -.0025 0 1 0 30 480 918 0 1 486 487 488 +-4e-4 -.0184 -.0025 271050543121376e-3
0 0 -1 30 486 919 0 489 490 480 0 +-4e-4 -.0284 -.0025 -1 0 0 30 487 916 0 1 480
 491 492 +4e-4 -.0184 -.0025 0 0 1 141 488 474 488 488 480 30 491 788 0 493 487
 494 0 +.0021 -.0284 -.0029 1 0 0 141 492 495 492 492 487 133 495 932 0 482 496
 476 0 +487 4e-4 -.0184 -.0029 4e-4 -.0184 -.0025 -4e-4 0 16 482 853 0 ?497 498
 478 495 0 0 1 133 496 831 0 499 415 495 0 +411 -4e-4 -.0184 -.0025 -65e-5 -.018
4 -.0025 -25e-5 0 30 476 934 0 1 495 473 500 +4e-4 -.0284 -.0025 0 1 0 141 500 5
01 500 500 476 133 501 1229 0 502 503 504 0 +476 4e-4 -.0279 -.0025 4e-4 -.0184
 -.0025 5e-4 .01 16 502 1228 0 ?243 471 505 501 0 0 1 133 503 1225 0 505 506 501
 0 +479 -4e-4 -.0279 -.0025 -4e-4 -.0184 -.0025 5e-4 .01 30 504 1233 0 507 501 5
08 0 +-.0001668461709225025 -.0284 -.0025 .4226182617406965 -.906307787036651 0
 16 507 1231 0 ?73 509 510 504 0 0 1 30 508 1239 0 509 504 472 0 +.0001668461709
225025 -.0284 -.0025 .4226182617406965 .906307787036651 0 16 509 1237 0 ?67 467
 507 508 0 0 1 133 472 1245 0 471 508 469 0 +473 4e-4 -.0279 -.0029 4e-4 -.0184
 -.0029 5e-4 .01 16 471 1244 0 ?121 468 502 472 0 0 1 17 121 0 511 497 64 119 51
2 471 0 513 +15 511 892 0 514 515 0 17 497 0 511 514 121 241 513 482 0 0 +17 64
 0 511 121 514 62 516 467 0 512 +17 512 0 517 79 518 62 121 471 0 519 -17 513 0
 520 216 521 119 497 482 0 518 -15 520 834 0 513 522 0 17 216 0 520 213 513 214
 518 406 0 523 +17 521 0 520 513 213 241 524 525 0 497 +17 518 0 517 512 523 119
 216 406 0 0 -15 517 481 0 512 526 0 17 523 0 517 518 527 214 528 529 0 530 -16
 406 821 0 ?216 416 403 412 0 0 1 17 527 0 517 523 531 205 532 533 0 528 +17 528
 0 534 535 530 205 523 529 0 536 +16 529 449 0 ?528 537 538 539 0 0 1 17 530 0 5
34 528 540 214 213 410 0 0 -15 534 485 0 535 541 0 17 540 0 534 530 535 211 542
 538 0 524 -17 213 0 520 521 216 211 530 410 0 540 +16 410 460 0 ?213 499 416 40
8 0 0 1 16 499 830 0 ?210 525 410 496 0 0 1 17 210 0 543 405 544 187 545 499 0 5
46 +16 525 463 0 ?521 547 499 415 0 0 1 16 547 441 0 ?548 538 525 549 0 0 1 133
 415 828 0 525 412 496 0 +411 65e-5 -.0184 -.0025 4e-4 -.0184 -.0025 -.0013 -.00
105 30 411 512 0 1 408 550 551 +-65e-5 -.0184 -.0025 -1 0 0 30 550 511 0 402 411
 552 0 +-65e-5 -.0149 -.0025 0 0 -1 141 551 496 553 553 411 141 553 415 551 551
 411 16 402 438 0 ?139 533 391 550 0 0 1 30 552 510 0 533 550 554 0 +-65e-5 -.01
49 -.0029 1 0 0 16 533 442 0 ?527 555 402 552 0 0 1 30 554 509 0 555 552 556 0 +
65e-5 -.0149 -.0025 0 0 1 16 555 446 0 ?535 407 533 554 0 0 1 30 556 508 0 407 5
54 549 0 +-65e-5 -.0149 -.0025 -1 0 0 16 407 450 0 ?200 403 555 556 0 0 1 30 549
 507 0 547 556 557 0 +-65e-5 -.0184 -.0025 0 1 0 30 557 506 0 538 549 539 0 +65e
-5 -.0184 -.0025 0 1 0 16 538 453 0 ?542 529 547 557 0 0 1 30 539 505 0 529 557
 558 0 +65e-5 -.0184 -.0029 0 1 0 30 558 504 0 537 539 559 0 +-65e-5 -.0184 -.00
29 0 1 0 16 537 445 0 ?531 560 529 558 0 0 1 30 559 386 0 561 558 562 0 +-.00315
 -.0184 -.0025 0 0 -1 16 561 325 0 ?563 564 565 559 0 0 1 30 562 385 0 1 559 566
 567 +-.00315 -.0184 -.0029 1 0 0 30 566 384 0 568 562 569 0 +-.00185 -.0184 -.0
025 0 0 1 141 567 570 571 571 562 133 570 955 0 564 484 572 0 +562 -.0021 -.0184
 -.0029 -.00185 -.0184 -.0029 .00105 .0013 141 571 484 567 567 562 133 484 952 0
 573 479 570 0 +562 -.00315 -.0184 -.0029 -.0029 -.0184 -.0029 0 25e-5 16 573 32
8 0 ?574 568 564 484 0 0 1 17 574 0 575 576 563 113 197 573 0 577 +16 568 331 0
 ?192 578 573 566 0 0 1 16 564 954 0 ?195 573 561 570 0 0 1 17 195 0 579 192 580
 193 581 564 0 582 +15 579 967 0 580 583 0 17 192 0 579 584 195 190 585 568 0 58
6 +17 580 0 579 195 584 110 587 588 0 581 -17 581 0 589 590 582 110 195 564 0 0
 -17 582 0 589 581 591 193 592 593 0 585 -15 589 352 0 594 595 0 17 591 0 589 58
2 596 146 597 598 0 592 +17 592 0 599 600 585 146 582 593 0 0 +16 593 320 0 ?592
 601 602 603 0 0 1 17 585 0 599 592 586 193 192 568 0 0 -15 599 356 0 600 604 0
 17 586 0 599 585 600 190 605 602 0 606 -17 600 0 599 586 592 183 607 608 0 605
 +17 605 0 609 610 606 183 586 602 0 0 +16 602 324 0 ?605 593 611 612 0 0 1 17 6
06 0 609 605 246 190 584 613 0 0 -15 609 360 0 614 615 0 17 246 0 609 606 85 244
 616 617 0 584 +17 584 0 579 580 192 244 606 613 0 587 +16 613 334 0 ?584 611 57
8 572 0 0 1 16 611 312 0 ?618 602 613 332 0 0 1 16 578 963 0 ?189 613 568 619 0
 0 1 133 572 961 0 613 570 619 0 +569 -.00185 -.0184 -.0025 -.0021 -.0184 -.0025
 -.0013 -.00105 133 619 964 0 578 572 620 0 +569 -.0029 -.0184 -.0025 -.00315 -.
0184 -.0025 -25e-5 0 30 569 383 0 1 566 621 622 +-.00315 -.0184 -.0025 -1 0 0 30
 621 382 0 1 569 623 624 +-.00315 -.0149 -.0025 0 0 -1 141 622 619 625 625 569 1
41 625 572 622 622 569 30 623 380 0 1 621 626 627 +-.00185 -.0149 -.0025 0 0 1 1
41 624 628 624 624 621 133 628 407 0 560 629 332 0 +621 -.00315 -.0149 -.0025 -.
00315 -.0149 -.0029 0 4e-4 16 560 309 0 ?630 598 537 628 0 0 1 30 629 406 0 1 63
1 628 632 +-.00315 -.0184 -.0029 0 1 0 133 332 408 0 611 628 329 0 +329 -.00315
 -.0184 -.0025 -.00315 -.0149 -.0025 0 .0035 133 631 405 0 601 633 629 0 +629 -.
00315 -.0184 -.0029 -.00315 -.0149 -.0029 0 .0035 141 632 631 632 632 629 16 601
 316 0 ?596 634 593 631 0 0 1 30 633 404 0 1 603 631 635 +-.00185 -.0184 -.0029
 0 1 0 133 603 403 0 593 636 633 0 +633 -.00185 -.0184 -.0029 -.00185 -.0149 -.0
029 0 .0035 141 635 603 635 635 633 30 636 402 0 1 637 603 638 +-.00315 -.0149 -
.0029 1 0 0 133 637 401 0 598 639 636 0 +636 -.00315 -.0149 -.0029 -.00185 -.014
9 -.0029 0 .0013 141 638 637 638 638 636 16 598 313 0 ?591 608 560 637 0 0 1 30
 639 400 0 1 640 637 641 +-.00315 -.0149 -.0025 -1 0 0 133 640 399 0 565 642 639
 0 +639 -.00185 -.0149 -.0025 -.00315 -.0149 -.0025 -.0013 0 141 641 640 641 641
 639 16 565 321 0 ?610 561 608 640 0 0 1 30 642 398 0 1 612 640 643 +-.00185 -.0
184 -.0025 0 1 0 133 612 397 0 602 644 642 0 +642 -.00185 -.0184 -.0025 -.00185
 -.0149 -.0025 0 .0035 141 643 612 643 643 642 133 644 396 0 608 645 612 0 +623
 -.00185 -.0149 -.0029 -.00185 -.0149 -.0025 -4e-4 0 16 608 317 0 ?600 565 598 6
44 0 0 1 133 645 295 0 336 323 644 0 +316 -.00315 -.0149 -.0025 -.0052 -.0149 -.
0025 .00835 .0104 16 336 294 0 ?168 334 326 645 0 0 1 133 323 292 0 339 320 645
 0 +316 .0052 -.0149 -.0025 .00315 -.0149 -.0025 0 .00205 16 339 133 0 ?646 647
 335 323 0 0 1 17 646 0 648 649 182 223 650 339 0 0 +16 647 1141 0 ?651 652 339
 653 0 0 1 17 651 0 654 655 656 98 657 647 0 658 +16 652 1146 0 ?659 660 647 661
 0 0 1 30 653 1143 0 647 662 661 0 +-.0023331538290775 -.0284 -.0025 0 0 1 30 66
2 1078 0 1 663 653 664 +-.0029 -.0284 -.0025 0 1 0 30 661 1148 0 652 653 665 0 +
-.002666846170922505 -.0284 -.0029 0 0 -1 133 665 1153 0 666 661 667 0 +668 -.00
21 -.0279 -.0029 -.0021 -.0184 -.0029 5e-4 .01 16 666 1152 0 ?112 483 617 665 0
 0 1 133 667 1157 0 483 665 669 0 +670 -.0029 -.0279 -.0029 -.0029 -.0184 -.0029
 5e-4 .01 30 668 1073 0 1 671 670 672 +-.0021 -.0284 -.0029 0 1 0 30 671 1067 0
 1 620 668 673 +-.0021 -.0284 -.0025 0 1 0 30 670 1075 0 1 668 663 674 +-.0029 -
.0284 -.0029 0 1 0 141 672 665 672 672 668 133 663 1076 0 675 670 662 0 +676 -.0
029 -.0184 -.0025 -.0029 -.0184 -.0029 0 4e-4 141 674 667 674 674 670 16 675 978
 0 ?577 588 677 663 0 0 1 30 676 1051 0 1 678 679 680 +-.0029 -.0184 -.0025 0 0
 -1 30 678 1052 0 681 682 676 0 +-.0029 -.0284 -.0025 -1 0 0 30 679 1049 0 1 676
 490 683 +-.0021 -.0184 -.0025 0 0 1 141 680 663 680 680 676 30 490 921 0 498 67
9 486 0 +-4e-4 -.0284 -.0029 1 0 0 141 683 620 683 683 679 133 620 1065 0 588 61
9 671 0 +679 -.0021 -.0184 -.0029 -.0021 -.0184 -.0025 -4e-4 0 16 588 986 0 ?587
 684 675 620 0 0 1 17 587 0 685 616 112 244 580 588 0 0 +16 684 1130 0 ?656 681
 588 682 0 0 1 17 656 0 654 651 659 101 594 684 0 657 +16 681 1136 0 ?655 686 68
4 678 0 0 1 30 682 1054 0 684 687 678 0 +-.0029 -.0284 -.0029 1 0 0 30 687 1639
 0 688 689 682 0 +-.00519 -.0064 -.00122 -1 0 0 16 688 1576 0 ?156 677 690 687 0
 0 1 30 689 1640 0 677 691 687 0 +-.00519 -.0064 0 -1 0 0 16 677 1588 0 ?692 675
 688 689 0 0 1 30 691 1645 0 693 694 689 0 +-.0052 -.0064 -.00122 0 0 1 16 693 1
592 0 ?250 300 30 691 0 0 1 30 694 1647 0 690 695 691 0 +-.00519 0 -.00122 0 0 -
1 16 690 1577 0 ?294 688 696 694 0 0 1 30 695 1648 0 696 697 694 0 +-.00519 0 -3
441453445057135e-50 0 1 -537727100790177e-47 16 696 1581 0 ?698 690 699 695 0 0
 1 30 697 1649 0 699 700 695 0 +-.00519 -.0064 -.00122 0 0 1 16 699 1585 0 ?701
 696 300 697 0 0 1 30 700 1650 0 300 702 697 0 +-.00519 0 -.00122 0 -1 -16940658
945086e-29 16 300 1573 0 ?299 699 693 700 0 0 1 30 702 1780 0 30 703 700 0 +.005
19 -.0064 0 1 0 0 16 30 1723 0 ?24 693 282 702 0 0 1 30 703 1782 0 287 704 702 0
 +.0052 -.0064 -.00122 0 0 1 16 287 1716 0 ?31 276 0 703 0 0 1 30 704 1786 0 282
 705 703 0 +.00519 -.0064 -.00122 0 0 1 16 282 1731 0 ?28 30 296 704 0 0 1 30 70
5 1787 0 296 297 704 0 +.00519 0 -3441453445057135e-50 0 1 -537727100790177e-47
 16 296 1734 0 ?281 282 280 705 0 0 1 30 297 1788 0 280 288 705 0 +.00519 0 -.00
122 0 0 -1 30 288 1789 0 276 0 297 0 +.00519 0 -.00122 0 -1 -16940658945086e-29
 17 281 0 706 257 29 270 279 296 0 290 +15 706 1691 0 29 707 0 17 257 0 706 708
 281 255 290 295 0 698 +17 29 0 706 281 709 268 24 30 0 0 -17 279 0 274 267 272
 268 281 296 0 29 -17 709 0 706 29 710 11 171 711 0 0 -17 710 0 706 709 152 149
 712 305 0 713 -17 171 0 714 715 31 149 709 711 0 710 +16 711 1676 0 ?171 305 71
6 717 0 0 1 16 305 126 0 ?712 295 711 307 0 0 1 16 716 16 0 ?718 711 719 720 0 0
 1 30 717 26 0 711 720 721 0 +.0052 -.01472518297014122 -1583625989427785e-49 0
 -1 -1075454201580354e-47 30 720 17 0 716 722 717 0 +.0052 -.0064 -.00122 0 .121
8693434051514 .992546151641322 30 721 117 0 723 717 724 0 +-.0052 -.0149 -.0025
 0 -.0697564737441253 -.997564050259824 16 723 97 0 ?725 726 727 721 0 0 1 30 72
4 116 0 726 721 728 0 +-.0052 -.0149 -.0029 0 0 -1 16 726 93 0 ?729 730 723 724
 0 0 1 30 728 115 0 730 724 731 0 +-.0052 -.01470355108654884 -.0044999480065454
35 0 .1218693434051472 -.992546151641322 16 730 89 0 ?162 732 726 728 0 0 1 30 7
31 114 0 732 728 733 0 +-.0052 -.01470355108654884 -.004499948006545435 0 1 1097
811729291474e-31 16 732 85 0 ?159 734 730 731 0 0 1 30 733 113 0 734 731 735 0 +
-.0052 -.0064 -.00122 0 .1218693434051514 .992546151641322 16 734 81 0 ?736 737
 732 733 0 0 1 30 735 110 0 737 733 307 0 +-.0052 -.01472518297014122 -158362598
9427785e-49 0 -1 -1075454201580354e-47 16 737 1537 0 ?152 738 734 735 0 0 1 30 3
07 150 0 305 735 306 0 +.0052 -.01472518297014122 -1583625989427785e-49 -1 0 0 1
7 152 0 706 710 692 150 739 737 0 712 +16 738 4 0 ?715 740 737 741 0 0 1 17 715
 0 714 180 171 153 713 738 0 650 +16 740 7 0 ?180 742 738 743 0 0 1 30 741 5 0 7
38 744 743 0 +.0052 -.0149 -.0025 0 -.0697564737441253 -.997564050259824 31 255
 744 268 0 727 626 741 0 +0 -.00254 0 0 1075454201580354e-47 -1 0 1 107545420158
0354e-47 .0019 30 743 8 0 740 741 745 0 +.0052 -.0149 -.0029 0 0 -1 30 745 11 0
 742 743 722 0 +.0052 -.01470355108654884 -.004499948006545435 0 .12186934340514
72 -.992546151641322 16 742 10 0 ?177 719 740 745 0 0 1 30 722 14 0 719 745 720
 0 +.0052 -.01470355108654884 -.004499948006545435 0 1 1097811729291474e-31 16 7
19 13 0 ?174 716 742 722 0 0 1 17 174 0 714 718 177 172 746 719 0 747 +15 714 16
79 0 31 748 0 17 718 0 714 31 174 263 749 716 0 750 +17 177 0 714 174 180 175 75
1 742 0 752 +17 746 0 753 314 747 175 174 719 0 0 -17 747 0 753 746 159 172 311
 309 0 749 -15 753 142 0 159 754 0 17 159 0 753 747 314 157 755 732 0 311 +17 31
1 0 756 736 749 157 747 309 0 757 +17 749 0 756 311 750 172 718 716 0 0 -15 756
 140 0 736 758 0 17 750 0 756 749 286 263 283 303 0 0 -17 286 0 756 750 759 252
 262 301 0 0 -17 283 0 26 28 27 252 750 303 0 275 +15 26 1755 0 27 760 0 17 28 0
 26 24 283 268 267 282 0 279 +17 27 0 26 283 24 263 31 287 0 718 -17 31 0 714 17
1 718 11 27 287 0 709 +14 255 760 1752 761 ?278 762 26 5 763 +0 0 278 762 21 81
 1 761 2162 764 760 765 0 0 766 767 14 278 1764 766 ?0 760 274 5 768 +0 0 0 760
 21 14 762 1625 769 ?760 770 771 5 772 +0 0 760 770 21 50 763 1775 0 760 768 772
 0 +.00519 -.0064 -.00122 0 1 0 0 0 1 13 21 45 0 0 0 0 0 0 9 15 14 15 1709 773 ?
291 0 774 5 775 -0 0 291 0 21 81 1 773 2165 764 15 776 0 769 777 778 14 291 1704
 777 ?707 15 289 5 779 -0 0 707 15 21 15 774 227 0 780 15 284 50 775 160 0 15 77
9 781 0 +.0052 0 -.00122 0 -16940658945086e-29 1 0 -1 -16940658945086e-29 50 779
 159 0 291 782 775 0 +.0052 0 0 0 -1 0 0 0 -1 50 781 161 0 758 775 783 0 +.0052
 -.0064 -.00122 0 -.992546151641322 .1218693434051514 0 -.1218693434051514 -.992
546151641322 14 758 141 784 ?785 754 756 5 781 -0 0 785 754 21 50 783 162 0 754
 781 786 0 +.0052 -.01470355108654884 -.004499948006545435 0 -1097811729291474e-
31 1 0 -1 -1097811729291474e-31 14 754 143 787 ?758 788 753 5 783 -0 0 758 788 2
1 50 786 163 0 788 783 789 0 +.0052 -.01470355108654884 -.004499948006545435 0 .
992546151641322 .1218693434051472 0 -.1218693434051472 .992546151641322 14 788 1
45 790 ?754 791 792 5 786 -0 0 754 791 21 50 789 164 0 793 786 794 0 +.0052 -.01
49 -.0029 0 1 0 0 0 1 14 793 305 795 ?791 796 797 5 789 -798 796 791 796 21 50 7
94 165 0 791 789 799 0 +.0052 -.0149 -.0025 0 .997564050259824 -.069756473744125
3 0 .0697564737441253 .997564050259824 14 791 149 800 ?788 793 801 5 794 -0 0 78
8 793 21 50 799 1390 0 802 794 803 0 +-.002666846170922505 -.0284 -.0029 -.90630
7787036651 -.4226182617406965 0 .4226182617406965 -.906307787036651 0 14 802 137
8 804 ?805 806 807 5 799 +0 0 805 806 21 50 803 1411 0 805 799 808 0 +-.00233315
38290775 -.0284 -.0029 .906307787036651 -.4226182617406965 0 .4226182617406965 .
906307787036651 0 14 805 1399 809 ?810 802 811 5 803 +0 0 810 802 21 50 808 1432
 0 810 803 812 0 +.0001668461709225025 -.0284 -.0025 .906307787036651 -.42261826
17406965 0 .4226182617406965 .906307787036651 0 14 810 1420 813 ?814 805 815 5 8
08 +0 0 814 805 21 50 812 1453 0 814 808 18 0 +-.0001668461709225025 -.0284 -.00
25 -.906307787036651 -.4226182617406965 -245655217911417e-30 .4226182617406965 -
.906307787036651 0 14 814 1441 816 ?817 810 818 5 812 +0 0 817 810 21 50 18 1474
 0 817 812 6 0 +.0023331538290775 -.0284 -.0029 -.906307787036651 -.422618261740
6965 0 .4226182617406965 -.906307787036651 0 14 817 1462 819 ?17 814 820 5 18 +0
 0 17 814 21 81 1 819 2176 764 817 821 0 816 822 823 14 17 1483 822 ?770 817 824
 5 6 +0 0 770 817 21 15 820 1463 0 825 817 0 17 825 0 820 826 457 33 50 23 0 0 -
17 826 0 820 58 825 41 40 431 0 0 -17 457 0 820 825 58 48 453 445 0 0 -17 50 0 3
4 36 382 48 825 23 0 456 +16 23 1334 0 ?50 10 38 19 0 0 1 16 38 1328 0 ?32 23 43
1 433 0 0 1 30 19 1336 0 23 433 7 0 +.0023331538290775 -.0284 -.0025 .4226182617
406965 -.906307787036651 0 17 36 0 34 32 50 51 456 428 0 0 -17 382 0 34 50 375 3
3 127 424 0 825 -17 456 0 455 453 458 48 36 428 0 457 +15 455 766 0 456 827 0 16
 428 1280 0 ?456 424 493 494 0 0 1 16 493 1274 0 ?452 428 438 491 0 0 1 30 494 7
86 0 428 491 422 0 +.0021 -.0284 -.0025 -1 0 0 30 422 785 0 1 494 351 828 +.0021
 -.0184 -.0025 0 0 -1 30 351 783 0 1 422 347 829 +.0029 -.0184 -.0025 0 0 1 141
 828 419 828 828 422 141 829 361 829 829 351 17 452 0 455 458 453 53 449 493 0 4
60 +16 438 720 0 ?368 493 381 361 0 0 1 17 368 0 830 39 130 229 366 438 0 0 +16
 381 712 0 ?380 438 468 419 0 0 1 17 380 0 831 832 127 131 374 381 0 0 +15 831 7
51 0 832 833 0 17 832 0 831 40 380 41 133 444 0 826 -17 127 0 831 380 40 125 382
 424 0 374 +17 40 0 831 127 832 33 826 431 0 382 +17 133 0 448 239 45 131 832 44
4 0 343 +15 448 596 0 449 834 0 17 239 0 448 390 133 222 343 340 0 373 -17 45 0
 448 133 449 41 58 429 0 832 +17 343 0 372 374 373 131 239 340 0 380 +17 449 0 4
48 45 55 56 452 493 0 0 -17 58 0 820 457 826 56 45 429 0 453 -17 390 0 448 228 2
39 134 379 391 0 835 +17 228 0 448 836 390 226 837 394 0 400 +17 835 0 838 388 5
36 134 207 331 0 837 -15 838 547 0 388 798 0 17 388 0 838 204 835 219 136 357 0
 839 -17 536 0 838 835 204 205 535 555 0 0 -17 207 0 792 532 837 205 835 331 0 5
27 +17 837 0 792 207 840 134 228 394 0 0 -15 792 144 0 162 788 0 17 840 0 792 83
7 751 226 841 326 0 0 +16 394 557 0 ?228 392 357 358 0 0 1 16 357 553 0 ?136 394
 444 355 0 0 1 30 358 625 0 394 355 395 0 +.00185 -.0149 -.0029 1 0 0 17 136 0 3
87 379 369 134 388 357 0 390 +17 751 0 792 840 752 178 177 742 0 0 -17 841 0 648
 182 649 178 840 326 0 751 -16 326 132 0 ?840 336 331 318 0 0 1 15 648 542 0 649
 842 0 17 182 0 648 646 841 153 180 740 0 715 -17 649 0 648 841 646 226 225 392
 0 840 -17 225 0 843 844 400 223 649 392 0 384 +15 843 600 0 225 845 0 17 844 0
 843 846 225 232 384 370 0 367 -17 400 0 843 225 846 226 836 398 0 649 +17 384 0
 34 221 367 223 844 370 0 385 +17 367 0 34 384 35 232 363 362 0 0 -17 385 0 801
 650 839 223 221 386 0 646 -15 801 148 0 725 791 0 17 650 0 801 713 385 153 646
 339 0 0 -17 839 0 801 385 847 219 204 335 0 0 -17 847 0 801 839 848 202 200 407
 0 0 -17 204 0 838 536 388 202 839 335 0 535 +17 535 0 534 540 528 202 536 555 0
 542 +17 542 0 849 200 524 202 540 538 0 847 +15 849 489 0 850 851 0 17 200 0 84
9 546 542 198 847 407 0 548 +17 524 0 849 542 243 211 521 525 0 0 -17 243 0 849
 524 67 241 514 502 0 521 +17 67 0 849 243 850 65 76 509 0 514 +17 514 0 511 64
 497 65 243 502 0 516 -17 516 0 815 76 519 65 64 467 0 0 -15 815 1421 0 519 810
 0 17 76 0 815 852 516 74 67 509 0 853 -17 519 0 815 516 852 62 79 461 0 0 -16 4
67 1247 0 ?64 465 509 469 0 0 1 17 852 0 815 519 76 77 853 510 0 0 -17 79 0 517
 854 512 77 519 461 0 855 +17 854 0 517 61 79 80 855 498 0 0 -17 855 0 856 853 8
57 77 854 498 0 852 +15 856 899 0 855 858 0 17 853 0 856 859 855 74 852 510 0 85
0 +17 857 0 856 855 859 80 860 861 0 854 +16 498 1202 0 ?855 489 482 490 0 0 1 1
6 489 1208 0 ?859 505 498 486 0 0 1 17 859 0 856 857 853 71 850 489 0 860 +16 50
5 1224 0 ?118 502 489 503 0 0 1 17 118 0 862 481 70 116 863 505 0 544 +15 862 88
4 0 864 865 0 17 481 0 862 864 118 122 544 478 0 0 +17 70 0 862 118 864 68 866 4
59 0 863 +17 863 0 849 73 545 68 118 505 0 867 -17 544 0 543 210 418 116 481 478
 0 545 -15 543 839 0 544 868 0 17 418 0 543 544 405 122 218 416 0 481 +17 545 0
 849 863 546 116 210 499 0 0 -17 546 0 849 545 200 187 548 547 0 869 -17 548 0 8
70 139 869 198 546 547 0 871 +17 869 0 870 548 872 187 405 403 0 0 -15 870 477 0
 139 873 0 17 872 0 870 869 139 201 531 537 0 0 -17 405 0 543 418 210 201 869 40
3 0 872 +17 139 0 870 872 548 137 871 402 0 531 +17 531 0 517 527 218 137 872 53
7 0 874 +17 218 0 517 531 124 201 418 416 0 405 -17 874 0 875 871 607 137 148 32
8 0 532 -15 875 432 0 871 796 0 17 871 0 875 185 874 198 139 402 0 848 -17 607 0
 875 874 185 146 600 608 0 591 -17 148 0 792 597 532 146 874 328 0 607 +17 532 0
 792 148 207 137 527 533 0 0 -17 597 0 792 165 148 143 591 598 0 596 -17 165 0 7
92 162 597 163 145 315 0 729 +17 596 0 589 591 197 143 876 601 0 630 +17 197 0 5
89 596 115 186 574 573 0 563 -17 876 0 877 878 630 186 596 601 0 0 -17 630 0 877
 876 618 143 142 560 0 0 +15 877 348 0 630 879 0 17 618 0 877 630 878 140 880 61
1 0 0 +17 142 0 797 168 145 140 630 560 0 881 -15 797 303 0 142 793 0 17 168 0 7
97 729 142 166 881 336 0 882 +17 145 0 797 142 729 143 165 315 0 597 -17 881 0 8
01 883 725 140 168 336 0 610 -17 883 0 801 848 881 183 610 565 0 600 -17 725 0 8
01 881 712 166 884 723 0 0 +17 610 0 609 880 605 140 883 565 0 618 +17 880 0 609
 885 610 169 618 611 0 878 -17 885 0 609 614 880 107 189 578 0 0 -17 878 0 877 6
18 876 169 563 561 0 0 -17 563 0 575 574 189 186 878 561 0 876 +15 575 972 0 576
 886 0 17 189 0 575 563 576 169 885 578 0 880 +17 576 0 575 189 574 107 577 675
 0 885 -17 577 0 887 888 109 113 576 675 0 0 +15 887 1017 0 888 889 0 17 888 0 8
87 88 577 89 115 483 0 890 -17 109 0 887 577 88 107 614 686 0 576 +17 88 0 887 1
09 888 86 890 891 0 614 +17 614 0 609 97 885 86 109 686 0 892 -16 686 1172 0 ?10
9 617 681 893 0 0 1 16 617 1181 0 ?246 666 686 894 0 0 1 133 893 1173 0 686 895
 896 0 +662 -.0029 -.0279 -.0025 -.0029 -.0184 -.0025 5e-4 .01 30 895 1167 0 897
 669 893 0 +-.002666846170922505 -.0284 -.0029 -.4226182617406965 .9063077870366
51 0 30 896 1177 0 891 893 894 0 +-.0029 -.0279 -.0025 0 0 1 16 891 1175 0 ?88 8
98 897 896 0 0 1 133 894 1182 0 617 896 899 0 +671 -.0021 -.0279 -.0025 -.0021 -
.0184 -.0025 5e-4 .01 30 899 1186 0 898 894 900 0 +-.0023331538290775 -.0284 -.0
025 .4226182617406965 .906307787036651 0 16 898 1184 0 ?85 901 891 899 0 0 1 30
 900 1192 0 901 899 902 0 +-.002666846170922505 -.0284 -.0025 .4226182617406965
 -.906307787036651 0 16 901 1190 0 ?97 903 898 900 0 0 1 30 902 1198 0 903 900 9
04 0 +-.0021 -.0279 -.0029 0 0 -1 16 903 1196 0 ?94 861 901 902 0 0 1 30 904 121
5 0 861 902 506 0 +-.0001668461709225025 -.0284 -.0029 271050543121376e-30 0 -1
 16 861 1213 0 ?857 510 903 904 0 0 1 30 506 1220 0 510 904 503 0 +.000166846170
9225025 -.0284 -.0025 0 0 1 16 510 1218 0 ?853 507 861 506 0 0 1 17 94 0 685 112
 616 92 905 903 0 590 +15 685 1025 0 616 906 0 17 112 0 685 587 94 110 590 666 0
 580 +17 616 0 685 94 587 83 246 617 0 905 -17 905 0 811 100 907 83 94 903 0 0 -
17 590 0 589 103 581 92 112 666 0 907 -17 103 0 589 594 590 101 907 660 0 656 +1
7 907 0 811 905 657 92 103 660 0 0 -15 811 1400 0 907 805 0 17 657 0 811 907 100
 101 651 647 0 0 -16 660 1159 0 ?103 897 652 669 0 0 1 16 897 1165 0 ?91 891 660
 895 0 0 1 30 669 1161 0 660 667 895 0 +-.0023331538290775 -.0284 -.0029 -.42261
82617406965 -.906307787036651 0 17 91 0 589 115 594 89 106 897 0 888 +17 115 0 5
89 197 91 113 888 483 0 574 +17 594 0 589 91 103 104 656 684 0 0 -17 106 0 807 9
08 890 104 91 897 0 659 -15 807 1379 0 892 802 0 17 908 0 807 892 106 95 659 652
 0 0 -17 890 0 807 106 892 89 88 891 0 0 -17 659 0 654 656 655 104 908 652 0 594
 +15 654 1032 0 655 806 0 17 655 0 654 659 651 95 658 681 0 908 +17 658 0 609 85
 97 98 655 681 0 0 -17 85 0 609 246 658 83 100 898 0 616 +17 97 0 609 658 614 95
 892 901 0 655 +17 892 0 807 890 908 86 97 901 0 0 -17 100 0 811 657 905 98 85 8
98 0 651 -14 806 1030 909 ?802 906 654 5 910 +0 0 802 906 21 81 1 909 2178 764 8
06 911 0 822 912 913 14 906 1022 912 ?806 889 685 5 914 -0 0 806 889 21 50 910 1
043 0 806 915 914 0 +-.0029 -.0284 -.0029 0 -1 0 0 0 -1 50 915 1634 0 770 772 91
0 0 +-.00519 -.0064 -.00122 0 -1 0 0 0 -1 50 914 1040 0 906 910 916 0 +-.0021 -.
0284 -.0025 -1 0 0 0 0 1 50 916 1038 0 889 914 917 0 +-.0029 -.0284 -.0025 1 0 0
 0 0 -1 14 889 1014 918 ?906 858 887 5 916 -0 0 906 858 21 50 917 910 0 858 916
 919 0 +-4e-4 -.0284 -.0025 0 -1 0 0 0 -1 14 858 897 920 ?889 515 856 5 917 +0 0
 889 515 21 50 919 907 0 515 917 921 0 +4e-4 -.0284 -.0025 -1 0 0 0 0 1 14 515 8
89 922 ?858 865 511 5 919 -0 0 858 865 21 50 921 905 0 865 919 923 0 +-4e-4 -.02
84 -.0025 1 0 271050543121376e-30 271050543121376e-30 0 -1 14 865 881 924 ?515 8
27 862 5 921 -0 0 515 827 21 50 923 777 0 827 921 925 0 +.0021 -.0284 -.0029 0 -
1 0 0 0 -1 14 827 764 926 ?865 927 455 5 923 +0 0 865 927 21 50 925 774 0 927 92
3 928 0 +.0029 -.0284 -.0025 -1 0 0 0 0 1 14 927 756 929 ?827 833 830 5 925 -0 0
 827 833 21 50 928 772 0 833 925 930 0 +.0021 -.0284 -.0025 1 0 0 0 0 -1 14 833
 748 931 ?927 932 831 5 928 -0 0 927 932 21 50 930 618 0 932 928 933 0 +.00185 -
.0184 -.0029 0 -1 0 0 0 -1 14 932 605 934 ?833 383 365 5 930 +377 377 833 383 21
 50 933 616 0 383 930 935 0 +.00185 -.0184 -.0025 0 0 -1 -1 0 0 14 383 601 936 ?
932 845 34 5 933 -0 0 932 845 21 50 935 615 0 845 933 937 0 +.00315 -.0184 -.002
5 -1 0 0 0 0 1 14 845 597 938 ?383 834 843 5 935 -0 0 383 834 21 50 937 614 0 83
4 935 939 0 +.00185 -.0184 -.0029 0 0 1 1 0 0 14 834 593 940 ?845 389 448 5 937
 -0 0 845 389 21 50 939 613 0 389 937 941 0 +.00185 -.0184 -.0025 1 0 5421010862
42752e-30 542101086242752e-30 0 -1 14 389 589 942 ?834 522 387 5 939 -0 0 834 52
2 21 50 941 503 0 522 939 943 0 +-65e-5 -.0184 -.0029 0 -1 0 0 0 -1 14 522 490 9
44 ?389 851 520 5 941 +868 868 389 851 21 50 943 501 0 851 941 945 0 +-65e-5 -.0
184 -.0025 0 0 -1 -1 0 0 14 851 486 946 ?522 541 849 5 943 -0 0 522 541 21 50 94
5 500 0 541 943 947 0 +65e-5 -.0184 -.0025 -1 0 0 0 0 1 14 541 482 948 ?851 526
 534 5 945 -0 0 851 526 21 50 947 499 0 526 945 949 0 +-65e-5 -.0184 -.0029 0 0
 1 1 0 0 14 526 478 950 ?541 873 517 5 947 -0 0 541 873 21 50 949 498 0 873 947
 951 0 +-65e-5 -.0184 -.0025 1 0 0 0 0 -1 14 873 474 952 ?526 583 870 5 949 -0 0
 526 583 21 50 951 374 0 583 949 953 0 +-.00315 -.0184 -.0029 0 -1 0 0 0 -1 14 5
83 361 954 ?873 615 579 5 951 +886 886 873 615 21 50 953 372 0 615 951 955 0 +-.
00315 -.0184 -.0025 0 0 -1 -1 0 0 14 615 357 956 ?583 604 609 5 953 -0 0 583 604
 21 50 955 371 0 604 953 957 0 +-.00185 -.0184 -.0025 -1 0 0 0 0 1 14 604 353 95
8 ?615 595 599 5 955 -0 0 615 595 21 50 957 370 0 595 955 959 0 +-.00315 -.0184
 -.0029 0 0 1 1 0 0 14 595 349 960 ?604 879 589 5 957 -0 0 604 879 21 50 959 369
 0 879 957 961 0 +-.00315 -.0184 -.0025 1 0 0 0 0 -1 14 879 345 962 ?595 963 877
 5 959 -0 0 595 963 21 51 255 961 267 0 963 959 964 0 +0 -.00254 -.00122 0 16940
658945086e-29 -1 .0019 0 1 16940658945086e-29 14 963 244 965 ?879 785 966 5 961
 -0 0 879 785 21 50 964 2 0 748 961 967 0 +.0052 -.01472518297014122 -1583625989
427785e-49 -1 0 0 0 0 1 14 748 1681 968 ?886 707 714 5 964 -0 0 886 707 21 50 96
7 109 0 785 964 782 0 +-.0052 -.01472518297014122 -1583625989427785e-49 -1 0 0 0
 0 1 14 785 67 969 ?963 758 970 5 967 +0 0 963 758 21 50 782 158 0 707 967 779 0
 +.0052 -.01472518297014122 -1583625989427785e-49 0 1075454201580354e-47 -1 0 1
 1075454201580354e-47 14 707 1693 971 ?748 291 972 5 782 -0 0 748 291 21 81 1 97
1 2205 764 707 973 0 969 974 975 15 972 234 0 976 707 706 17 976 0 972 976 976 0
 977 727 0 0 +17 977 0 978 977 977 0 976 727 0 0 -16 727 240 0 ?976 723 634 744
 0 0 1 16 634 241 0 ?979 727 601 626 0 0 1 17 979 0 966 979 979 0 780 634 0 0 +3
1 626 270 0 634 623 744 0 +0 -.00254 -.00122 0 16940658945086e-29 -1 0 1 1694065
8945086e-29 .0019 15 966 247 0 979 963 978 17 780 0 774 780 780 0 979 634 0 0 -1
5 978 248 0 977 963 0 80 255 1 764 980 981 9000 1 1 1 1 1 1 1 1 0 FFFFTFTFFFFFFF
1 81 1 973 2005 982 707 0 971 983 984 985 81 1 969 2204 764 785 986 0 968 971 98
7 81 1 974 2206 764 886 988 0 971 989 990 82 255 1 975 -1891368563 14 886 969 97
4 ?868 748 575 5 951 +583 583 868 748 21 81 1 988 2007 982 886 0 974 984 991 992
 81 1 989 2207 764 868 991 0 974 993 994 82 1 990 -1607335551 14 868 836 989 ?37
7 886 543 5 941 +522 522 377 886 21 81 1 991 2008 982 868 0 989 988 995 996 81 1
 993 2208 764 377 995 0 989 997 998 82 1 994 -1610808959 14 377 703 993 ?798 868
 372 5 930 +932 932 798 868 21 81 1 995 2009 982 377 0 993 991 999 1000 81 1 997
 2209 764 798 999 0 993 1001 1002 82 1 998 -1614282367 14 798 549 997 ?842 377 8
38 5 789 -842 793 842 377 21 81 1 999 2010 982 798 0 997 995 1003 1004 81 1 1001
 2210 764 842 1003 0 997 1005 1006 82 1 1002 -1114701443 14 842 544 1001 ?796 79
8 648 5 789 -796 798 796 798 21 81 1 1003 2011 982 842 0 1001 999 1007 1008 81 1
 1005 2211 764 796 1007 0 1001 1009 1010 82 1 1006 -1115160195 14 796 434 1005 ?
793 842 875 5 789 -793 842 793 842 21 81 1 1007 2012 982 796 0 1005 1003 1011 10
12 81 1 1009 2212 764 770 1013 0 1005 0 1014 82 1 1010 -1117388419 14 770 1621 1
009 ?762 17 1015 5 915 -0 0 762 17 21 81 1 1013 2050 982 770 0 1009 1016 1017 10
18 82 1 1014 1372127627 80 1 982 0 1019 8001 0 0 0 0 3 5 0 0 0 FFFFTFTFFFFFFF2 8
1 1 1016 2049 982 17 0 822 821 1013 1020 81 1 1017 2051 982 762 0 769 1013 765 1
021 83 255 3 1018 .752941176470588 .752941176470588 .752941176470588 81 1 769 21
64 764 762 1017 0 766 773 1022 81 1 765 2052 982 760 0 761 1017 1023 1024 83 3 1
021 .752941176470588 .752941176470588 .752941176470588 81 1 1023 2053 982 278 0
 766 765 0 1025 83 3 1024 .752941176470588 .752941176470588 .752941176470588 81
 1 766 2163 764 278 1023 0 761 769 1026 83 3 1025 .752941176470588 .752941176470
588 .752941176470588 82 1 1026 -1903754867 82 1 1022 1365311883 81 1 822 2177 76
4 17 1016 0 819 909 1027 81 1 821 2048 982 817 0 819 1028 1016 1029 83 3 1020 1
 1 1 81 1 1028 2047 982 814 0 816 1030 821 1031 83 3 1029 1 1 1 81 1 816 2175 76
4 814 1028 0 813 819 1032 81 1 1030 2046 982 810 0 813 1033 1028 1034 83 3 1031
 1 1 1 81 1 813 2174 764 810 1030 0 809 816 1035 81 1 1033 2045 982 805 0 809 10
36 1030 1037 83 3 1034 1 1 1 81 1 809 2173 764 805 1033 0 804 813 1038 81 1 1036
 2044 982 802 0 804 911 1033 1039 83 3 1037 1 1 1 81 1 804 2172 764 802 1036 0 8
00 809 1040 81 1 911 2043 982 806 0 909 1041 1036 1042 83 3 1039 1 1 1 81 1 1041
 2042 982 906 0 912 1043 911 1044 83 3 1042 1 1 1 81 1 912 2179 764 906 1041 0 9
09 918 1045 81 1 1043 2041 982 889 0 918 1046 1041 1047 83 3 1044 1 1 1 81 1 918
 2180 764 889 1043 0 912 920 1048 81 1 1046 2040 982 858 0 920 1049 1043 1050 83
 3 1047 1 1 1 81 1 920 2181 764 858 1046 0 918 922 1051 81 1 1049 2039 982 515 0
 922 1052 1046 1053 83 3 1050 1 1 1 81 1 922 2182 764 515 1049 0 920 924 1054 81
 1 1052 2038 982 865 0 924 1055 1049 1056 83 3 1053 1 1 1 81 1 924 2183 764 865
 1052 0 922 926 1057 81 1 1055 2037 982 827 0 926 1058 1052 1059 83 3 1056 1 1 1
 81 1 926 2184 764 827 1055 0 924 929 1060 81 1 1058 2036 982 927 0 929 1061 105
5 1062 83 3 1059 1 1 1 81 1 929 2185 764 927 1058 0 926 931 1063 81 1 1061 2035
 982 833 0 931 1064 1058 1065 83 3 1062 1 1 1 81 1 931 2186 764 833 1061 0 929 9
34 1066 81 1 1064 2034 982 932 0 934 1067 1061 1068 83 3 1065 1 1 1 81 1 934 218
7 764 932 1064 0 931 936 1069 81 1 1067 2033 982 383 0 936 1070 1064 1071 83 3 1
068 1 1 1 81 1 936 2188 764 383 1067 0 934 938 1072 81 1 1070 2032 982 845 0 938
 1073 1067 1074 83 3 1071 1 1 1 81 1 938 2189 764 845 1070 0 936 940 1075 81 1 1
073 2031 982 834 0 940 1076 1070 1077 83 3 1074 1 1 1 81 1 940 2190 764 834 1073
 0 938 942 1078 81 1 1076 2030 982 389 0 942 1079 1073 1080 83 3 1077 1 1 1 81 1
 942 2191 764 389 1076 0 940 944 1081 81 1 1079 2029 982 522 0 944 1082 1076 108
3 83 3 1080 1 1 1 81 1 944 2192 764 522 1079 0 942 946 1084 81 1 1082 2028 982 8
51 0 946 1085 1079 1086 83 3 1083 1 1 1 81 1 946 2193 764 851 1082 0 944 948 108
7 81 1 1085 2027 982 541 0 948 1088 1082 1089 83 3 1086 1 1 1 81 1 948 2194 764
 541 1085 0 946 950 1090 81 1 1088 2026 982 526 0 950 1091 1085 1092 83 3 1089 1
 1 1 81 1 950 2195 764 526 1088 0 948 952 1093 81 1 1091 2025 982 873 0 952 1094
 1088 1095 83 3 1092 1 1 1 81 1 952 2196 764 873 1091 0 950 954 1096 81 1 1094 2
024 982 583 0 954 1097 1091 1098 83 3 1095 1 1 1 81 1 954 2197 764 583 1094 0 95
2 956 1099 81 1 1097 2023 982 615 0 956 1100 1094 1101 83 3 1098 1 1 1 81 1 956
 2198 764 615 1097 0 954 958 1102 81 1 1100 2022 982 604 0 958 1103 1097 1104 83
 3 1101 1 1 1 81 1 958 2199 764 604 1100 0 956 960 1105 81 1 1103 2021 982 595 0
 960 1106 1100 1107 83 3 1104 1 1 1 81 1 960 2200 764 595 1103 0 958 962 1108 81
 1 1106 2020 982 879 0 962 1109 1103 1110 83 3 1107 1 1 1 81 1 962 2201 764 879
 1106 0 960 965 1111 81 1 1109 2019 982 963 0 965 986 1106 1112 83 3 1110 1 1 1
 81 1 965 2202 764 963 1109 0 962 968 1113 81 1 986 2018 982 785 0 969 1114 1109
 1115 83 3 1112 1 1 1 81 1 1114 2017 982 758 0 784 1116 986 1117 83 3 1115 .2509
80392156863 .250980392156863 .250980392156863 81 1 784 2167 764 758 1114 0 777 7
87 1118 81 1 1116 2016 982 754 0 787 1119 1114 1120 83 3 1117 .250980392156863 .
250980392156863 .250980392156863 81 1 787 2168 764 754 1116 0 784 790 1121 81 1
 1119 2015 982 788 0 790 1122 1116 1123 83 3 1120 .250980392156863 .250980392156
863 .250980392156863 81 1 790 2169 764 788 1119 0 787 795 1124 81 1 1122 2014 98
2 791 0 800 1011 1119 1125 83 3 1123 .250980392156863 .250980392156863 .25098039
2156863 81 1 800 2171 764 791 1122 0 795 804 1126 81 1 1011 2013 982 793 0 795 1
007 1122 1127 83 3 1125 .250980392156863 .250980392156863 .250980392156863 81 1
 795 2170 764 793 1011 0 790 800 1128 83 3 1127 .250980392156863 .25098039215686
3 .250980392156863 82 1 1128 -1120599683 82 1 1126 1238106493 82 1 1124 12375822
05 82 1 1121 1237320054 81 1 777 2166 764 291 983 0 773 784 1129 82 1 1118 12370
57933 81 1 983 2004 982 291 0 777 776 973 1130 82 1 1129 -1890254451 81 1 776 20
03 982 15 0 773 0 983 1131 83 3 1130 1 1 1 83 3 1131 1 1 1 81 1 968 2203 764 748
 984 0 965 969 1132 82 1 1113 398197113 81 1 984 2006 982 748 0 968 973 988 1133
 82 1 1132 -1892548211 83 3 1133 .250980392156863 .250980392156863 .250980392156
863 82 1 1111 -1150287491 82 1 1108 -1150549629 82 1 1105 -1150811779 82 1 1102
 -1151073917 82 1 1099 -1157627519 82 1 1096 -1138556547 82 1 1093 -1138818685 8
2 1 1090 -1139080835 82 1 1087 -1139342973 82 1 1084 -1145896575 82 1 1081 -1126
891139 82 1 1078 -1127153277 82 1 1075 -1127415427 82 1 1072 -1127677565 82 1 10
69 -1134231167 82 1 1066 -1643511421 82 1 1063 -1644035709 82 1 1060 -1650851453
 82 1 1057 -1631780477 82 1 1054 -1632304765 82 1 1051 -1639120509 82 1 1048 -16
20115069 82 1 1045 -1620639357 82 1 1040 -1712914045 82 1 1038 -1710947965 82 1
 1035 -1708981885 82 1 1032 -1707015805 82 1 1027 -1703083645 79 255 15 1019 SDL
/TYSA_COLOUR15 1015 1624 0 250 770 0 17 250 0 1015 260 156 248 1134 693 0 692 +1
7 260 0 1015 1135 250 258 692 677 0 701 -17 156 0 1015 250 1135 154 759 688 0 11
34 +17 1134 0 970 757 739 154 250 693 0 736 -17 692 0 706 152 708 248 260 677 0
 739 +17 708 0 706 692 257 258 698 696 0 0 -17 739 0 970 1134 884 248 152 737 0
 0 -15 970 1540 0 1134 785 0 17 884 0 970 739 882 150 725 723 0 0 -17 882 0 970
 884 1136 166 729 726 0 725 -17 1136 0 970 882 755 163 162 730 0 0 -17 729 0 797
 145 168 163 882 726 0 1136 +17 755 0 970 1136 757 160 159 732 0 0 -17 162 0 792
 752 165 160 1136 730 0 314 +17 752 0 792 751 162 175 314 312 0 746 -17 314 0 75
3 159 746 160 752 312 0 755 +17 757 0 970 755 1134 157 736 734 0 0 -17 736 0 756
 759 311 154 757 734 0 0 +17 759 0 756 286 736 251 156 688 0 0 -17 698 0 771 294
 701 255 708 696 0 292 +15 771 1627 0 299 762 0 17 294 0 771 299 698 247 292 690
 0 298 +17 701 0 771 698 299 258 1135 699 0 708 +17 292 0 289 290 254 255 294 69
0 0 0 -17 299 0 771 701 294 251 298 300 0 759 +17 1135 0 1015 156 260 251 701 69
9 0 299 -83 3 1012 .250980392156863 .250980392156863 .250980392156863 83 3 1008
 .250980392156863 .250980392156863 .250980392156863 83 3 1004 .250980392156863 .
250980392156863 .250980392156863 83 3 1000 1 1 1 83 3 996 1 1 1 83 3 992 1 1 1 8
2 1 987 1230045579 83 3 985 1 1 1 79 14 981 SWEntUnchanged15 365 701 0 366 932 0
 17 366 0 365 237 363 128 368 438 0 1137 -17 237 0 365 234 366 235 1137 345 0 83
6 +17 1137 0 448 450 836 128 237 345 0 0 -17 450 0 448 55 1137 46 130 435 0 451
 -17 836 0 448 1137 228 235 400 398 0 846 -17 846 0 843 400 844 235 234 344 0 0
 -17 234 0 365 363 237 232 846 344 0 844 +17 130 0 830 368 22 128 450 435 0 366
 +17 451 0 824 1138 460 46 55 447 0 0 -15 824 1484 0 451 17 0 17 1138 0 824 37 4
51 25 22 10 0 0 -17 460 0 824 451 37 53 458 454 0 0 -17 37 0 824 460 1138 51 32
 38 0 458 -17 22 0 830 130 39 46 1138 10 0 450 +15 830 759 0 39 927 0 17 39 0 83
0 22 368 25 35 427 0 1138 -17 35 0 34 367 32 229 39 427 0 363 +50 772 1638 0 762
 763 915 0 +-.00519 -.0064 -.00122 -1 0 0 0 0 1 82 1 913 -1627455101 16 483 1156
 0 ?115 478 666 667 0 0 1 17 712 0 801 725 713 150 710 305 0 884 +17 713 0 801 7
12 650 149 715 738 0 0 -17 848 0 801 847 883 198 185 334 0 0 -17 185 0 875 607 8
71 183 848 334 0 883 +16 315 285 0 ?165 328 312 320 0 0 1 17 124 0 517 218 61 12
2 864 468 0 418 +17 61 0 517 124 854 59 82 465 0 864 +17 864 0 862 70 481 59 124
 468 0 866 -17 866 0 818 82 867 59 70 459 0 0 -15 818 1442 0 867 814 0 17 82 0 8
18 860 866 80 61 465 0 857 -17 867 0 818 866 860 68 73 507 0 0 -17 860 0 818 867
 82 71 857 861 0 0 -17 73 0 849 850 863 71 867 507 0 859 +17 850 0 849 67 73 74
 859 489 0 0 -17 180 0 714 177 715 178 182 740 0 841 +82 1 823 -1705049725 82 1
 778 -1889795699 50 768 1777 0 278 0 763 0 +.00519 -.0064 -.00122 1 0 0 0 0 1 82
 1 767 -1897201267 17 262 0 284 298 275 251 286 301 0 1135 +141 673 894 673 673
 671 141 664 893 664 664 662 141 627 644 627 627 623 141 485 503 485 485 479 141
 477 472 477 477 473 141 440 443 440 440 421 141 333 332 333 333 329 141 319 645
 1139 1140 316 141 1139 337 1141 319 316 141 1140 323 319 1141 316 141 1141 330
 1140 1139 316 19 16 167 0 1 0 9 5 S74 255 20 14 3 0 1009 2 1023 0 0 0 0 0 0 0 0
 0 0 0 0 0 0 0 0 0 80 2 12 1142 1143 8004 0 0 0 0 3 5 0 0 0 FFTFFFFFFFFFFF2 3 83
 1 13 1e3 79 16 1143 SDL/TYSA_DENSITY1 0 
