<?xml version="1.0"?>
<!DOCTYPE svg PUBLIC "-//W3C//DTD SVG 1.1//EN" "http://www.w3.org/Graphics/SVG/1.1/DTD/svg11.dtd">
<svg width="10.812mm" height="7.811999999999999mm" viewBox="0 0 10.812 7.811999999999999" xmlns="http://www.w3.org/2000/svg" version="1.1">
<g id="Feature" transform="translate(3.206000,4.606000) scale(1,-1)">
<path id="Feature_f0000"  d="M 1.45 2.0 M 1.4499999999999997 2.0 L 1.4499999999999997 2.0 L 1.4499999999999997 2.0 M 1.4499999999999997 -2.0 L 1.4499999999999997 -2.0 Z M 0.999999999999999 -8.95806671334938e-16 C 1.00000012255615 0.0207332272411461 0.9993545021994545 0.04146534753079786 0.9980685804727287 0.06212172464728152 C 0.996212134738093 0.09194270238949867 0.9930211850008146 0.12160581764305543 0.9885469204182686 0.15091383677965442 C 0.9836615552246615 0.18291471065333137 0.9772462163448299 0.21449223735150466 0.9694126193085891 0.24543669962998563 C 0.960916314701098 0.27899900519876486 0.9507516377446366 0.3118166034882956 0.9390542817547196 0.34376889899775265 C 0.9287402050050018 0.37194265283565253 0.9172345117235968 0.39944365714469265 0.904624380309885 0.42620972601403045 C 0.8910967063566368 0.45492335641132164 0.876298023998699 0.4827912091290474 0.8602983171635381 0.5097909429222751 C 0.8429443816017723 0.5390759570328351 0.8241775058796379 0.5673396763108074 0.8040751182364807 0.5945277152774202 C 0.7836517092974414 0.622149928515094 0.7618497934440563 0.6486618313740334 0.7387206645346678 0.6740117059736115 C 0.7079932626084544 0.7076894025549192 0.6749233921021427 0.7393161739479706 0.6396249649653445 0.7686871302377074 C 0.6065270199138797 0.7962271193034879 0.5714697112989029 0.8217837789537221 0.5345836508790243 0.8451155661877567 C 0.5001479476166678 0.8668974125716187 0.4641183918295401 0.8867401666695027 0.4266749515463144 0.9044050451666826 C 0.3965125938514087 0.9186348910312379 0.36543276374287365 0.9314515091608 0.33357361085467885 0.9427240562016919 C 0.2986917878909228 0.9550660977999386 0.26287574899401767 0.9655571787300262 0.2263764396847295 0.9740398901254843 C 0.19450089530374753 0.9814480041055528 0.16210422996004303 0.9873243622150013 0.12939952408757388 0.991592538881727 C 0.10763390409471144 0.9944330937472139 0.08573184795371894 0.9965613589590656 0.06376667732867886 0.997964834481887 C 0.045125458085225015 0.9991559244747827 0.026438781032462215 0.999824989262684 0.007751149649561354 0.9999699593883373 C -0.01176281096991108 1.0001213397995319 -0.03127781218255026 0.9997012520127575 -0.05076069497324737 0.9987108449625617 C -0.07108926635300655 0.9976774475628434 -0.09138287048252121 0.996023144925648 -0.11157910084491594 0.9937555555842895 C -0.1296386205911464 0.9917278715189078 -0.14762028045656056 0.9892098045598092 -0.16547919426468444 0.9862132813268691 C -0.18508937668070635 0.9829229150793388 -0.20455155943059988 0.9790556556073022 -0.22382590397330038 0.9746291421410168 C -0.25229632497629156 0.9680906732617582 -0.280356907740121 0.9603319857929364 -0.30788735880153095 0.951422815729273 C -0.34265700257096254 0.9401709597860528 -0.3765810606894775 0.9270840285787284 -0.4094617703963241 0.9123272760275821 C -0.4500649469718294 0.8941047061725749 -0.4890771351333968 0.8733358474828354 -0.5262699240462149 0.8503175683498436 C -0.5655382278447922 0.8260147719117077 -0.6027784062394611 0.7992044957391667 -0.637831546407972 0.7701759009517346 C -0.676498344670893 0.7381547235877153 -0.7125039342000788 0.7034342752180281 -0.7457008039255166 0.6662809550218579 C -0.7756789827115416 0.6327299339603223 -0.803366691334492 0.5971949412965969 -0.8286374575089093 0.5597856411280762 C -0.8503676568867349 0.5276175799922871 -0.8703107231064199 0.4940636202835285 -0.8883333291440936 0.45919919025600664 C -0.9023960095506116 0.43199517014883837 -0.9152894427474294 0.40399328722839145 -0.9269356435165949 0.3752203522977907 C -0.9385947507182573 0.3464155309220064 -0.9490038595703916 0.31683794761450507 -0.9580492420335187 0.2866036458927228 C -0.9669970018466855 0.25669564907466513 -0.9746103125680503 0.22614503266768488 -0.9807907947433541 0.19506259750833893 C -0.9868893684622578 0.16439209044988384 -0.9915928398493368 0.1332037673669135 -0.9948112123061978 0.10173815346207776 C -0.9977965225103603 0.0725511592501133 -0.9995040361668639 0.04312558076092148 -0.9999066447832774 0.013663883717585182 C -1.0002833349269151 -0.013901176836586754 -0.9995177221382252 -0.041497855270254236 -0.9976202876482912 -0.0689475284005255 C -0.9952629113654949 -0.10305105542667584 -0.9911584974694718 -0.1369276705690067 -0.9853968795262176 -0.1702732798180458 C -0.9781710019810161 -0.212093353880019 -0.9683385611905316 -0.2530782257550342 -0.956153914713515 -0.29286462978315053 C -0.9435228341909007 -0.33410877042624 -0.9283640251006344 -0.37406501289300764 -0.9109346668962057 -0.4125506425236781 C -0.8962627023000683 -0.44494769287850855 -0.8799817799160592 -0.4763026367398814 -0.8622000230688167 -0.5065679818347514 C -0.8424797170670697 -0.5401328242542374 -0.8209135000626869 -0.572357543961447 -0.7976102474161271 -0.6031731867521846 C -0.7734610268439537 -0.6351075165263881 -0.7474463637203905 -0.6655286061722119 -0.7196421890575802 -0.6943451013209601 C -0.6908663974158822 -0.7241685889914464 -0.6601738399933342 -0.752273377588649 -0.6276577715945002 -0.7784893844857657 C -0.5948758587253961 -0.8049197278881657 -0.5602404957131234 -0.8294302787815192 -0.5238746611447234 -0.8517953624025558 C -0.48950967999016765 -0.8729299159272763 -0.4535994103526207 -0.8921485952182906 -0.41632545288064327 -0.9092156604919027 C -0.3812202330780748 -0.925289700343061 -0.34490539776050433 -0.9394552200534405 -0.30761365690692943 -0.9515113441700767 C -0.2780449042285945 -0.9610706874483603 -0.24786197495150233 -0.9693038621633072 -0.2172184262465635 -0.9761230226252049 C -0.19092308154250812 -0.9819745699333979 -0.16428856336994163 -0.9867849190425206 -0.1374307075526829 -0.9905113833881813 C -0.11505031137436567 -0.9936166107364743 -0.09251483555182788 -0.9959692177026307 -0.06990481036168336 -0.9975536664702789 C -0.05137403477526753 -0.9988522525750951 -0.03279318325412893 -0.9996348552310887 -0.014207986738700495 -0.9998990614621217 C 0.004783848093497932 -1.0001690484432793 0.023780220134271404 -0.9998977061273867 0.042752544879688055 -0.9990856919735714 C 0.062151346797501256 -0.9982554246270182 0.08152500815487047 -0.9968599048136091 0.1008191657786991 -0.994904767207237 C 0.11779444004557935 -0.9931846093364072 0.1347081726138279 -0.9910312664058357 0.15152246170043318 -0.9884538146014918 C 0.17027612754010854 -0.9855790769537944 0.18890608712811768 -0.9821767540063286 0.20737644008761374 -0.9782612187430249 C 0.23455535490128476 -0.9724995530290762 0.2613886768565448 -0.965626639537673 0.2877684306202295 -0.9577000210600239 C 0.32070271315730825 -0.9478038903059185 0.352930031320014 -0.9362653783173893 0.3842752510064483 -0.9232185718798825 C 0.4256802010259395 -0.9059846084920702 0.46554600806713764 -0.8861188745335222 0.503613348257154 -0.8639291611337225 C 0.5481934279041926 -0.8379431272850149 0.590307019299777 -0.8087698965276169 0.6297173785207706 -0.7768243193856172 C 0.6680589355932604 -0.7457451007889202 0.7038418946854896 -0.7120418679004068 0.7369311440043167 -0.6759678165389885 C 0.7664041853638004 -0.643836171679512 0.7937401167067035 -0.609823589253573 0.8188191123514168 -0.5740516189751899 C 0.8383443728408257 -0.5462013394903313 0.8565016129134865 -0.517284623551367 0.8732190930219585 -0.4873278317333293 C 0.8895000397707497 -0.45815328334508654 0.9044154359923298 -0.42799226762872344 0.9178525111800895 -0.39692161407562926 C 0.9301704631779278 -0.3684387177860323 0.9412460871681037 -0.3391913944636413 0.9509890194560993 -0.3092246511420562 C 0.9601216407876283 -0.28113506669196553 0.9680833043657338 -0.25241337023528976 0.974774440798898 -0.22319227039750722 C 0.9806536792830312 -0.19751683896205163 0.9855520141591326 -0.17145584584824752 0.989415827130622 -0.1451079633356698 C 0.9930361410806801 -0.1204205347984635 0.9957482164087867 -0.09548123722780995 0.997517617074549 -0.07041735315894725 C 0.9991695919395138 -0.04701682703654948 0.999999861043658 -0.023507702001517 0.999999999999999 -1.15012166457262e-15 Z " stroke="#191919" stroke-width="0.35 px" style="stroke-width:0.35;stroke-miterlimit:4;stroke-dasharray:none;fill:#cccccc;fill-opacity:1.0;fill-rule: evenodd"/>
<circle cx="2.22044604925031e-16" cy="0.0" r="1.0" stroke="#191919" stroke-width="0.35 px" style="stroke-width:0.35;stroke-miterlimit:4;stroke-dasharray:none;fill:#cccccc"/>
<circle cx="2.22044604925031e-16" cy="0.0" r="1.0" stroke="#191919" stroke-width="0.35 px" style="stroke-width:0.35;stroke-miterlimit:4;stroke-dasharray:none;fill:#cccccc"/>
<path id="Feature_f0003"  d="M 2.0 2.0 L -2.0 2.0 L -2.0 2.0 L 2.0 2.0 L 2.0 2.0 Z M 1.45 2.0 M 1.4499999999999997 2.0 L 1.4499999999999997 2.0 Z " stroke="#191919" stroke-width="0.35 px" style="stroke-width:0.35;stroke-miterlimit:4;stroke-dasharray:none;fill:#cccccc;fill-opacity:1.0;fill-rule: evenodd"/>
<path id="Feature_f0004"  d="M -2.0 -2.0 L -2.0 -2.0 L 2.0 -2.0 L 2.0 -2.0 L -2.0 -2.0 Z M 1.45 -2.0 M 1.4499999999999997 -2.0 L 1.4499999999999997 -2.0 Z " stroke="#191919" stroke-width="0.35 px" style="stroke-width:0.35;stroke-miterlimit:4;stroke-dasharray:none;fill:#cccccc;fill-opacity:1.0;fill-rule: evenodd"/>
<path id="Feature_f0005"  d="M 2.0 -2.0 L 2.0 -2.0 L 2.0 2.0 L 2.0 2.0 L 2.0 -2.0 Z " stroke="#191919" stroke-width="0.35 px" style="stroke-width:0.35;stroke-miterlimit:4;stroke-dasharray:none;fill:#cccccc;fill-opacity:1.0;fill-rule: evenodd"/>
<path id="Feature_f0006"  d="M -2.0 -2.0 L -2.0 -2.0 L -2.0 2.0 L -2.0 2.0 L -2.0 -2.0 Z " stroke="#191919" stroke-width="0.35 px" style="stroke-width:0.35;stroke-miterlimit:4;stroke-dasharray:none;fill:#cccccc;fill-opacity:1.0;fill-rule: evenodd"/>
<circle cx="0.0" cy="0.0" r="0.5" stroke="#191919" stroke-width="0.35 px" style="stroke-width:0.35;stroke-miterlimit:4;stroke-dasharray:none;fill:#cccccc"/>
<circle cx="0.0" cy="0.0" r="0.5" stroke="#191919" stroke-width="0.35 px" style="stroke-width:0.35;stroke-miterlimit:4;stroke-dasharray:none;fill:#cccccc"/>
<circle cx="0.0" cy="0.0" r="0.1" stroke="#191919" stroke-width="0.35 px" style="stroke-width:0.35;stroke-miterlimit:4;stroke-dasharray:none;fill:#cccccc"/>
<circle cx="0.0" cy="0.0" r="0.1" stroke="#191919" stroke-width="0.35 px" style="stroke-width:0.35;stroke-miterlimit:4;stroke-dasharray:none;fill:#cccccc"/>
<path id="Feature_f0011"  d="M 6.45 2.0 M 6.449999999999999 2.0 L 6.449999999999999 2.0 L 6.449999999999999 2.0 M 6.449999999999999 -2.0 L 6.449999999999999 -2.0 Z M 5.999999999999999 -8.95806671334938e-16 C 6.00000012255615 0.0207332272411461 5.999354502199455 0.04146534753079786 5.9980685804727285 0.06212172464728152 C 5.996212134738093 0.09194270238949867 5.993021185000814 0.12160581764305543 5.988546920418269 0.15091383677965442 C 5.9836615552246615 0.18291471065333137 5.97724621634483 0.21449223735150466 5.9694126193085895 0.24543669962998563 C 5.960916314701098 0.27899900519876486 5.950751637744636 0.3118166034882956 5.93905428175472 0.34376889899775265 C 5.928740205005002 0.37194265283565253 5.9172345117235965 0.39944365714469265 5.904624380309885 0.42620972601403045 C 5.891096706356637 0.45492335641132164 5.876298023998699 0.4827912091290474 5.860298317163538 0.5097909429222751 C 5.8429443816017725 0.5390759570328351 5.8241775058796375 0.5673396763108074 5.804075118236481 0.5945277152774202 C 5.783651709297442 0.622149928515094 5.761849793444057 0.6486618313740334 5.738720664534668 0.6740117059736115 C 5.707993262608454 0.7076894025549192 5.6749233921021425 0.7393161739479706 5.6396249649653445 0.7686871302377074 C 5.60652701991388 0.7962271193034879 5.571469711298903 0.8217837789537221 5.534583650879025 0.8451155661877567 C 5.500147947616668 0.8668974125716187 5.46411839182954 0.8867401666695027 5.426674951546314 0.9044050451666826 C 5.3965125938514085 0.9186348910312379 5.365432763742874 0.9314515091608 5.333573610854678 0.9427240562016919 C 5.298691787890923 0.9550660977999386 5.262875748994018 0.9655571787300262 5.22637643968473 0.9740398901254843 C 5.194500895303747 0.9814480041055528 5.162104229960043 0.9873243622150013 5.1293995240875745 0.991592538881727 C 5.107633904094712 0.9944330937472139 5.08573184795372 0.9965613589590656 5.06376667732868 0.997964834481887 C 5.045125458085225 0.9991559244747827 5.026438781032462 0.999824989262684 5.007751149649561 0.9999699593883373 C 4.988237189030089 1.0001213397995319 4.96872218781745 0.9997012520127575 4.949239305026753 0.9987108449625617 C 4.928910733646993 0.9976774475628434 4.908617129517479 0.996023144925648 4.888420899155084 0.9937555555842895 C 4.870361379408854 0.9917278715189078 4.852379719543439 0.9892098045598092 4.834520805735315 0.9862132813268691 C 4.814910623319293 0.9829229150793388 4.7954484405694 0.9790556556073022 4.7761740960267 0.9746291421410168 C 4.7477036750237085 0.9680906732617582 4.719643092259879 0.9603319857929364 4.69211264119847 0.951422815729273 C 4.657342997429038 0.9401709597860528 4.623418939310523 0.9270840285787284 4.590538229603676 0.9123272760275821 C 4.549935053028171 0.8941047061725749 4.510922864866603 0.8733358474828354 4.473730075953785 0.8503175683498436 C 4.434461772155208 0.8260147719117077 4.3972215937605394 0.7992044957391667 4.362168453592028 0.7701759009517346 C 4.323501655329107 0.7381547235877153 4.287496065799921 0.7034342752180281 4.254299196074483 0.6662809550218579 C 4.224321017288458 0.6327299339603223 4.1966333086655085 0.5971949412965969 4.171362542491091 0.5597856411280762 C 4.149632343113265 0.5276175799922871 4.12968927689358 0.4940636202835285 4.111666670855906 0.45919919025600664 C 4.097603990449389 0.43199517014883837 4.084710557252571 0.40399328722839145 4.073064356483405 0.3752203522977907 C 4.061405249281743 0.3464155309220064 4.050996140429609 0.31683794761450507 4.0419507579664815 0.2866036458927228 C 4.033002998153314 0.25669564907466513 4.02538968743195 0.22614503266768488 4.019209205256646 0.19506259750833893 C 4.013110631537742 0.16439209044988384 4.0084071601506635 0.1332037673669135 4.005188787693802 0.10173815346207776 C 4.00220347748964 0.0725511592501133 4.000495963833137 0.04312558076092148 4.000093355216723 0.013663883717585182 C 3.999716665073085 -0.013901176836586754 4.000482277861774 -0.041497855270254236 4.002379712351709 -0.0689475284005255 C 4.0047370886345055 -0.10305105542667584 4.008841502530529 -0.1369276705690067 4.014603120473783 -0.1702732798180458 C 4.021828998018984 -0.212093353880019 4.0316614388094685 -0.2530782257550342 4.043846085286486 -0.29286462978315053 C 4.056477165809099 -0.33410877042624 4.071635974899365 -0.37406501289300764 4.089065333103794 -0.4125506425236781 C 4.103737297699931 -0.44494769287850855 4.12001822008394 -0.4763026367398814 4.137799976931183 -0.5065679818347514 C 4.15752028293293 -0.5401328242542374 4.179086499937313 -0.572357543961447 4.202389752583873 -0.6031731867521846 C 4.226538973156046 -0.6351075165263881 4.252553636279609 -0.6655286061722119 4.280357810942419 -0.6943451013209601 C 4.309133602584119 -0.7241685889914464 4.339826160006666 -0.752273377588649 4.3723422284055005 -0.7784893844857657 C 4.405124141274604 -0.8049197278881657 4.439759504286878 -0.8294302787815192 4.476125338855278 -0.8517953624025558 C 4.510490320009833 -0.8729299159272763 4.546400589647379 -0.8921485952182906 4.583674547119356 -0.9092156604919027 C 4.618779766921925 -0.925289700343061 4.655094602239496 -0.9394552200534405 4.69238634309307 -0.9515113441700767 C 4.721955095771405 -0.9610706874483603 4.752138025048497 -0.9693038621633072 4.782781573753437 -0.9761230226252049 C 4.809076918457492 -0.9819745699333979 4.835711436630058 -0.9867849190425206 4.862569292447317 -0.9905113833881813 C 4.884949688625634 -0.9936166107364743 4.907485164448172 -0.9959692177026307 4.930095189638315 -0.9975536664702789 C 4.948625965224732 -0.9988522525750951 4.967206816745871 -0.9996348552310887 4.9857920132613 -0.9998990614621217 C 5.004783848093498 -1.0001690484432793 5.023780220134272 -0.9998977061273867 5.042752544879688 -0.9990856919735714 C 5.062151346797501 -0.9982554246270182 5.081525008154871 -0.9968599048136091 5.100819165778699 -0.994904767207237 C 5.117794440045579 -0.9931846093364072 5.134708172613827 -0.9910312664058357 5.1515224617004325 -0.9884538146014918 C 5.170276127540108 -0.9855790769537944 5.188906087128117 -0.9821767540063286 5.2073764400876135 -0.9782612187430249 C 5.234555354901284 -0.9724995530290762 5.261388676856544 -0.965626639537673 5.287768430620229 -0.9577000210600239 C 5.320702713157308 -0.9478038903059185 5.352930031320014 -0.9362653783173893 5.384275251006448 -0.9232185718798825 C 5.425680201025939 -0.9059846084920702 5.465546008067137 -0.8861188745335222 5.503613348257154 -0.8639291611337225 C 5.5481934279041925 -0.8379431272850149 5.590307019299777 -0.8087698965276169 5.6297173785207715 -0.7768243193856172 C 5.668058935593261 -0.7457451007889202 5.703841894685491 -0.7120418679004068 5.736931144004317 -0.6759678165389885 C 5.7664041853638 -0.643836171679512 5.793740116706703 -0.609823589253573 5.818819112351417 -0.5740516189751899 C 5.838344372840825 -0.5462013394903313 5.856501612913487 -0.517284623551367 5.873219093021959 -0.4873278317333293 C 5.88950003977075 -0.45815328334508654 5.9044154359923295 -0.42799226762872344 5.91785251118009 -0.39692161407562926 C 5.930170463177928 -0.3684387177860323 5.941246087168103 -0.3391913944636413 5.950989019456099 -0.3092246511420562 C 5.960121640787628 -0.28113506669196553 5.968083304365734 -0.25241337023528976 5.974774440798899 -0.22319227039750722 C 5.980653679283032 -0.19751683896205163 5.985552014159134 -0.17145584584824752 5.989415827130623 -0.1451079633356698 C 5.9930361410806805 -0.1204205347984635 5.995748216408787 -0.09548123722780995 5.997517617074549 -0.07041735315894725 C 5.9991695919395145 -0.04701682703654948 5.9999998610436585 -0.023507702001517 5.999999999999999 -1.15012166457262e-15 Z " stroke="#191919" stroke-width="0.35 px" style="stroke-width:0.35;stroke-miterlimit:4;stroke-dasharray:none;fill:#cccccc;fill-opacity:1.0;fill-rule: evenodd"/>
<circle cx="5.0" cy="0.0" r="1.0" stroke="#191919" stroke-width="0.35 px" style="stroke-width:0.35;stroke-miterlimit:4;stroke-dasharray:none;fill:#cccccc"/>
<circle cx="5.0" cy="0.0" r="1.0" stroke="#191919" stroke-width="0.35 px" style="stroke-width:0.35;stroke-miterlimit:4;stroke-dasharray:none;fill:#cccccc"/>
<path id="Feature_f0014"  d="M 7.0 2.0 L 3.0 2.0 L 3.0 2.0 L 7.0 2.0 L 7.0 2.0 Z M 6.45 2.0 M 6.449999999999999 2.0 L 6.449999999999999 2.0 Z " stroke="#191919" stroke-width="0.35 px" style="stroke-width:0.35;stroke-miterlimit:4;stroke-dasharray:none;fill:#cccccc;fill-opacity:1.0;fill-rule: evenodd"/>
<path id="Feature_f0015"  d="M 3.0 -2.0 L 3.0 -2.0 L 7.0 -2.0 L 7.0 -2.0 L 3.0 -2.0 Z M 6.45 -2.0 M 6.449999999999999 -2.0 L 6.449999999999999 -2.0 Z " stroke="#191919" stroke-width="0.35 px" style="stroke-width:0.35;stroke-miterlimit:4;stroke-dasharray:none;fill:#cccccc;fill-opacity:1.0;fill-rule: evenodd"/>
<path id="Feature_f0016"  d="M 7.0 -2.0 L 7.0 -2.0 L 7.0 2.0 L 7.0 2.0 L 7.0 -2.0 Z " stroke="#191919" stroke-width="0.35 px" style="stroke-width:0.35;stroke-miterlimit:4;stroke-dasharray:none;fill:#cccccc;fill-opacity:1.0;fill-rule: evenodd"/>
<path id="Feature_f0017"  d="M 3.0 -2.0 L 3.0 -2.0 L 3.0 2.0 L 3.0 2.0 L 3.0 -2.0 Z " stroke="#191919" stroke-width="0.35 px" style="stroke-width:0.35;stroke-miterlimit:4;stroke-dasharray:none;fill:#cccccc;fill-opacity:1.0;fill-rule: evenodd"/>
<circle cx="5.0" cy="0.0" r="0.5" stroke="#191919" stroke-width="0.35 px" style="stroke-width:0.35;stroke-miterlimit:4;stroke-dasharray:none;fill:#cccccc"/>
<circle cx="5.0" cy="0.0" r="0.5" stroke="#191919" stroke-width="0.35 px" style="stroke-width:0.35;stroke-miterlimit:4;stroke-dasharray:none;fill:#cccccc"/>
<circle cx="5.0" cy="0.0" r="0.1" stroke="#191919" stroke-width="0.35 px" style="stroke-width:0.35;stroke-miterlimit:4;stroke-dasharray:none;fill:#cccccc"/>
<circle cx="5.0" cy="0.0" r="0.1" stroke="#191919" stroke-width="0.35 px" style="stroke-width:0.35;stroke-miterlimit:4;stroke-dasharray:none;fill:#cccccc"/>
<circle cx="1.57772181044202e-30" cy="0.0" r="1.5" stroke="#191919" stroke-width="0.35 px" style="stroke-width:0.35;stroke-miterlimit:4;stroke-dasharray:none;fill:#cccccc"/>
<circle cx="1.57772181044202e-30" cy="0.0" r="1.5" stroke="#191919" stroke-width="0.35 px" style="stroke-width:0.35;stroke-miterlimit:4;stroke-dasharray:none;fill:#cccccc"/>
<circle cx="1.57772181044202e-30" cy="0.0" r="1.5" stroke="#191919" stroke-width="0.35 px" style="stroke-width:0.35;stroke-miterlimit:4;stroke-dasharray:none;fill:#cccccc"/>
<path id="Feature_f0025"  d="M -1.0 3.0 L -1.0 2.0 L -1.0 2.0 L -1.0 3.0 L -1.0 3.0 Z " stroke="#191919" stroke-width="0.35 px" style="stroke-width:0.35;stroke-miterlimit:4;stroke-dasharray:none;fill:#cccccc;fill-opacity:1.0;fill-rule: evenodd"/>
<path id="Feature_f0026"  d="M 1.0 3.0 L -1.0 3.0 L -1.0 3.0 L 1.0 3.0 L 1.0 3.0 Z " stroke="#191919" stroke-width="0.35 px" style="stroke-width:0.35;stroke-miterlimit:4;stroke-dasharray:none;fill:#cccccc;fill-opacity:1.0;fill-rule: evenodd"/>
<path id="Feature_f0027"  d="M 1.0 2.0 L 1.0 3.0 L 1.0 3.0 L 1.0 2.0 L 1.0 2.0 Z " stroke="#191919" stroke-width="0.35 px" style="stroke-width:0.35;stroke-miterlimit:4;stroke-dasharray:none;fill:#cccccc;fill-opacity:1.0;fill-rule: evenodd"/>
<path id="Feature_f0028"  d="M 1.95 1.45151724426986 L 1.0 2.0 L 1.0 2.0 L 1.95 1.45151724426986 L 1.95 1.45151724426986 Z " stroke="#191919" stroke-width="0.35 px" style="stroke-width:0.35;stroke-miterlimit:4;stroke-dasharray:none;fill:#cccccc;fill-opacity:1.0;fill-rule: evenodd"/>
<path id="Feature_f0029"  d="M 1.95 -1.45151724426986 L 1.95 1.45151724426986 L 1.95 1.45151724426986 L 1.95 -1.45151724426986 L 1.95 -1.45151724426986 Z " stroke="#191919" stroke-width="0.35 px" style="stroke-width:0.35;stroke-miterlimit:4;stroke-dasharray:none;fill:#cccccc;fill-opacity:1.0;fill-rule: evenodd"/>
<path id="Feature_f0030"  d="M 1.00000000000001 -2.0 L 1.95 -1.45151724426986 L 1.95 -1.45151724426986 L 1.00000000000001 -2.0 L 1.00000000000001 -2.0 Z " stroke="#191919" stroke-width="0.35 px" style="stroke-width:0.35;stroke-miterlimit:4;stroke-dasharray:none;fill:#cccccc;fill-opacity:1.0;fill-rule: evenodd"/>
<path id="Feature_f0031"  d="M 1.0 -2.25 L 1.00000000000001 -2.0 L 1.00000000000001 -2.0 L 1.0 -2.25 L 1.0 -2.25 Z " stroke="#191919" stroke-width="0.35 px" style="stroke-width:0.35;stroke-miterlimit:4;stroke-dasharray:none;fill:#cccccc;fill-opacity:1.0;fill-rule: evenodd"/>
<path id="Feature_f0032"  d="M -1.0 -2.0 L -1.0 -2.25 L -1.0 -2.25 L -1.0 -2.0 L -1.0 -2.0 Z " stroke="#191919" stroke-width="0.35 px" style="stroke-width:0.35;stroke-miterlimit:4;stroke-dasharray:none;fill:#cccccc;fill-opacity:1.0;fill-rule: evenodd"/>
<path id="Feature_f0033"  d="M -1.95 -1.45151724426986 L -1.0 -2.0 L -1.0 -2.0 L -1.95 -1.45151724426986 L -1.95 -1.45151724426986 Z " stroke="#191919" stroke-width="0.35 px" style="stroke-width:0.35;stroke-miterlimit:4;stroke-dasharray:none;fill:#cccccc;fill-opacity:1.0;fill-rule: evenodd"/>
<path id="Feature_f0034"  d="M -1.95 1.45151724426986 L -1.95 -1.45151724426986 L -1.95 -1.45151724426986 L -1.95 1.45151724426986 L -1.95 1.45151724426986 Z " stroke="#191919" stroke-width="0.35 px" style="stroke-width:0.35;stroke-miterlimit:4;stroke-dasharray:none;fill:#cccccc;fill-opacity:1.0;fill-rule: evenodd"/>
<path id="Feature_f0035"  d="M -1.0 2.0 L -1.95 1.45151724426986 L -1.95 1.45151724426986 L -1.0 2.0 L -1.0 2.0 Z " stroke="#191919" stroke-width="0.35 px" style="stroke-width:0.35;stroke-miterlimit:4;stroke-dasharray:none;fill:#cccccc;fill-opacity:1.0;fill-rule: evenodd"/>
<path id="Feature_f0036"  d="M -1.0 -2.25 L 1.0 -2.25 M 1.0000000000000004 -2.25 L 1.0 -2.55 L -1.0 -2.55 M -0.9999999999999993 -2.55 L -1.0 -2.25 Z " stroke="#191919" stroke-width="0.35 px" style="stroke-width:0.35;stroke-miterlimit:4;stroke-dasharray:none;fill:#cccccc;fill-opacity:1.0;fill-rule: evenodd"/>
<path id="Feature_f0037"  d="M 1.0 -2.35 L -1.0 -2.35 M -0.9999999999999998 -2.35 L -1.0 -2.25 L 1.0 -2.25 M 1.0000000000000002 -2.25 L 1.0 -2.35 Z " stroke="#191919" stroke-width="0.35 px" style="stroke-width:0.35;stroke-miterlimit:4;stroke-dasharray:none;fill:#cccccc;fill-opacity:1.0;fill-rule: evenodd"/>
<path id="Feature_f0038"  d="M 1.0 -2.35 L 1.0 -2.35 L 1.0 -2.55 L 1.0 -2.55 L 1.0 -2.35 Z " stroke="#191919" stroke-width="0.35 px" style="stroke-width:0.35;stroke-miterlimit:4;stroke-dasharray:none;fill:#cccccc;fill-opacity:1.0;fill-rule: evenodd"/>
<path id="Feature_f0039"  d="M 1.0 -2.55 L -1.0 -2.55 L -1.0 -2.55 L 1.0 -2.55 L 1.0 -2.55 Z " stroke="#191919" stroke-width="0.35 px" style="stroke-width:0.35;stroke-miterlimit:4;stroke-dasharray:none;fill:#cccccc;fill-opacity:1.0;fill-rule: evenodd"/>
<path id="Feature_f0040"  d="M -1.0 -2.35 L -1.0 -2.35 L -1.0 -2.55 L -1.0 -2.55 L -1.0 -2.35 Z " stroke="#191919" stroke-width="0.35 px" style="stroke-width:0.35;stroke-miterlimit:4;stroke-dasharray:none;fill:#cccccc;fill-opacity:1.0;fill-rule: evenodd"/>
<path id="Feature_f0041"  d="M -1.0 -2.35 L 1.0 -2.35 L 1.0 -2.35 L -1.0 -2.35 L -1.0 -2.35 Z " stroke="#191919" stroke-width="0.35 px" style="stroke-width:0.35;stroke-miterlimit:4;stroke-dasharray:none;fill:#cccccc;fill-opacity:1.0;fill-rule: evenodd"/>
<path id="Feature_f0042"  d="M -0.9999999999999998 -2.35 M -0.9999999999999998 -2.35 L -1.0 -2.25 L -1.0 -2.25 M -1.0 -2.25 L -0.9999999999999993 -2.55 L -1.0 -2.35 Z " stroke="#191919" stroke-width="0.35 px" style="stroke-width:0.35;stroke-miterlimit:4;stroke-dasharray:none;fill:#cccccc;fill-opacity:1.0;fill-rule: evenodd"/>
<path id="Feature_f0043"  d="M 1.0000000000000002 -2.25 M 1.0000000000000002 -2.25 L 1.0 -2.35 L 1.0 -2.55 M 1.0 -2.55 L 1.0000000000000004 -2.25 L 1.0 -2.25 Z " stroke="#191919" stroke-width="0.35 px" style="stroke-width:0.35;stroke-miterlimit:4;stroke-dasharray:none;fill:#cccccc;fill-opacity:1.0;fill-rule: evenodd"/>
<path id="Feature_f0044"  d="M -1.0 -2.55 L 1.0 -2.55 M 1.0 -2.55 L 1.0 -2.3276457135307558 L -1.0 -2.32764571353075 M -0.9999999999999997 -2.3276457135307504 L -0.9999999999999999 -2.55 Z " stroke="#191919" stroke-width="0.35 px" style="stroke-width:0.35;stroke-miterlimit:4;stroke-dasharray:none;fill:#cccccc;fill-opacity:1.0;fill-rule: evenodd"/>
<path id="Feature_f0045"  d="M 1.0 -2.27588190451025 L -1.0 -2.27588190451025 M -0.9999999999999999 -2.275881904510249 L -1.0 -2.35 L 1.0 -2.35 M 1.0 -2.35 L 1.0 -2.2758819045102516 Z " stroke="#191919" stroke-width="0.35 px" style="stroke-width:0.35;stroke-miterlimit:4;stroke-dasharray:none;fill:#cccccc;fill-opacity:1.0;fill-rule: evenodd"/>
<path id="Feature_f0046"  d="M 1.0 -0.344030251932112 L 1.0 -2.27588190451025 L 1.0 -2.32764571353075 L 1.0 -0.395794060952615 L 1.0 -0.344030251932112 Z " stroke="#191919" stroke-width="0.35 px" style="stroke-width:0.35;stroke-miterlimit:4;stroke-dasharray:none;fill:#cccccc;fill-opacity:1.0;fill-rule: evenodd"/>
<path id="Feature_f0047"  d="M 1.0 -2.32764571353075 L -1.0 -2.32764571353075 L -1.0 -0.395794060952615 L 1.0 -0.395794060952615 L 1.0 -2.32764571353075 Z " stroke="#191919" stroke-width="0.35 px" style="stroke-width:0.35;stroke-miterlimit:4;stroke-dasharray:none;fill:#cccccc;fill-opacity:1.0;fill-rule: evenodd"/>
<path id="Feature_f0048"  d="M -1.0 -2.27588190451025 L -1.0 -0.344030251932112 L -1.0 -0.395794060952615 L -1.0 -2.32764571353075 L -1.0 -2.27588190451025 Z " stroke="#191919" stroke-width="0.35 px" style="stroke-width:0.35;stroke-miterlimit:4;stroke-dasharray:none;fill:#cccccc;fill-opacity:1.0;fill-rule: evenodd"/>
<path id="Feature_f0049"  d="M -1.0 -0.344030251932113 L 1.0 -0.344030251932113 L 1.0 -2.27588190451025 L -1.0 -2.27588190451025 L -1.0 -0.344030251932112 Z " stroke="#191919" stroke-width="0.35 px" style="stroke-width:0.35;stroke-miterlimit:4;stroke-dasharray:none;fill:#cccccc;fill-opacity:1.0;fill-rule: evenodd"/>
<path id="Feature_f0050"  d="M -0.9999999999999999 -2.275881904510249 M -0.9999999999999999 -2.275881904510249 L -1.0 -2.35 L -1.0 -2.55 M -0.9999999999999999 -2.55 L -0.9999999999999997 -2.3276457135307504 L -1.0 -2.27588190451025 Z " stroke="#191919" stroke-width="0.35 px" style="stroke-width:0.35;stroke-miterlimit:4;stroke-dasharray:none;fill:#cccccc;fill-opacity:1.0;fill-rule: evenodd"/>
<path id="Feature_f0051"  d="M 1.0 -2.35 M 1.0 -2.35 L 1.0 -2.2758819045102516 L 1.0 -2.32764571353075 M 1.0 -2.3276457135307558 L 1.0 -2.55 L 1.0 -2.35 Z " stroke="#191919" stroke-width="0.35 px" style="stroke-width:0.35;stroke-miterlimit:4;stroke-dasharray:none;fill:#cccccc;fill-opacity:1.0;fill-rule: evenodd"/>
<path id="Feature_f0052"  d="M -1.0 -0.395794060952615 L 1.0 -0.395794060952615 M 1.0000000000000002 -0.39579406095261627 L 0.9999999999999998 1.057300048018134 L -1.0 1.05730004801814 M -1.0000000000000007 1.0573000480181411 L -1.0000000000000013 -0.39579406095261316 Z " stroke="#191919" stroke-width="0.35 px" style="stroke-width:0.35;stroke-miterlimit:4;stroke-dasharray:none;fill:#cccccc;fill-opacity:1.0;fill-rule: evenodd"/>
<path id="Feature_f0053"  d="M 1.0 1.0398688994686 L -1.0 1.0398688994686 M -1.000000000000001 1.0398688994686016 L -1.0000000000000016 -0.34403025193210945 L 1.0 -0.344030251932113 M 0.9999999999999999 -0.3440302519321111 L 0.9999999999999993 1.0398688994686034 Z " stroke="#191919" stroke-width="0.35 px" style="stroke-width:0.35;stroke-miterlimit:4;stroke-dasharray:none;fill:#cccccc;fill-opacity:1.0;fill-rule: evenodd"/>
<path id="Feature_f0054"  d="M 1.0 1.0573000480181327 L 1.0 1.0398688994686 L 1.0 1.53796624851448 L 0.999999999999999 1.55539739706401 L 1.0 1.05730004801814 Z " stroke="#191919" stroke-width="0.35 px" style="stroke-width:0.35;stroke-miterlimit:4;stroke-dasharray:none;fill:#cccccc;fill-opacity:1.0;fill-rule: evenodd"/>
<path id="Feature_f0055"  d="M -1.0 1.55539739706401 L -0.5 2.05349474610988 L 0.500000000000002 2.05349474610988 L 0.999999999999999 1.55539739706401 L 1.0 1.05730004801814 L -1.0 1.05730004801814 L -1.0 1.55539739706401 Z " stroke="#191919" stroke-width="0.35 px" style="stroke-width:0.35;stroke-miterlimit:4;stroke-dasharray:none;fill:#cccccc;fill-opacity:1.0;fill-rule: evenodd"/>
<path id="Feature_f0056"  d="M -1.0 1.53796624851448 L -1.0 1.55539739706401 L -1.0 1.05730004801814 L -1.0 1.0398688994686 L -1.0 1.53796624851448 Z " stroke="#191919" stroke-width="0.35 px" style="stroke-width:0.35;stroke-miterlimit:4;stroke-dasharray:none;fill:#cccccc;fill-opacity:1.0;fill-rule: evenodd"/>
<path id="Feature_f0057"  d="M -0.5 2.03606359756035 L -1.0 1.53796624851448 L -1.0 1.0398688994686 L 1.0 1.03986889946861 L 1.0 1.53796624851448 L 0.500000000000002 2.03606359756035 L -0.5 2.03606359756035 Z " stroke="#191919" stroke-width="0.35 px" style="stroke-width:0.35;stroke-miterlimit:4;stroke-dasharray:none;fill:#cccccc;fill-opacity:1.0;fill-rule: evenodd"/>
<path id="Feature_f0058"  d="M 0.500000000000002 2.053494746109883 L 0.500000000000002 2.03606359756035 L -0.5 2.03606359756035 L -0.5 2.05349474610988 L 0.500000000000002 2.05349474610988 Z " stroke="#191919" stroke-width="0.35 px" style="stroke-width:0.35;stroke-miterlimit:4;stroke-dasharray:none;fill:#cccccc;fill-opacity:1.0;fill-rule: evenodd"/>
<path id="Feature_f0059"  d="M -1.000000000000001 1.0398688994686016 M -1.000000000000001 1.0398688994686016 L -1.0000000000000016 -0.34403025193210945 L -1.0 -0.395794060952615 M -1.0000000000000013 -0.39579406095261405 L -1.0000000000000007 1.0573000480181405 L -1.0 1.0398688994686 Z " stroke="#191919" stroke-width="0.35 px" style="stroke-width:0.35;stroke-miterlimit:4;stroke-dasharray:none;fill:#cccccc;fill-opacity:1.0;fill-rule: evenodd"/>
<path id="Feature_f0060"  d="M 0.9999999999999999 -0.3440302519321111 M 0.9999999999999999 -0.3440302519321111 L 0.9999999999999993 1.0398688994686034 L 1.0 1.05730004801814 M 0.9999999999999998 1.057300048018135 L 1.0000000000000002 -0.39579406095261493 L 1.0 -0.344030251932112 Z " stroke="#191919" stroke-width="0.35 px" style="stroke-width:0.35;stroke-miterlimit:4;stroke-dasharray:none;fill:#cccccc;fill-opacity:1.0;fill-rule: evenodd"/>
<path id="Feature_f0061"  d="M 1.0 1.555397397064013 L 1.0 1.53796624851448 L 0.500000000000002 2.03606359756035 L 0.500000000000002 2.05349474610988 L 0.999999999999999 1.55539739706401 Z " stroke="#191919" stroke-width="0.35 px" style="stroke-width:0.35;stroke-miterlimit:4;stroke-dasharray:none;fill:#cccccc;fill-opacity:1.0;fill-rule: evenodd"/>
<path id="Feature_f0062"  d="M -0.5 2.0534947461098843 L -0.5 2.036063597560352 L -1.0 1.53796624851448 L -1.0 1.55539739706401 L -0.5 2.05349474610988 Z " stroke="#191919" stroke-width="0.35 px" style="stroke-width:0.35;stroke-miterlimit:4;stroke-dasharray:none;fill:#cccccc;fill-opacity:1.0;fill-rule: evenodd"/>
<circle cx="5.0" cy="0.0" r="1.5" stroke="#191919" stroke-width="0.35 px" style="stroke-width:0.35;stroke-miterlimit:4;stroke-dasharray:none;fill:#cccccc"/>
<circle cx="5.0" cy="0.0" r="1.5" stroke="#191919" stroke-width="0.35 px" style="stroke-width:0.35;stroke-miterlimit:4;stroke-dasharray:none;fill:#cccccc"/>
<circle cx="5.0" cy="0.0" r="1.5" stroke="#191919" stroke-width="0.35 px" style="stroke-width:0.35;stroke-miterlimit:4;stroke-dasharray:none;fill:#cccccc"/>
<path id="Feature_f0066"  d="M 4.0 3.0 L 4.0 2.0 L 4.0 2.0 L 4.0 3.0 L 4.0 3.0 Z " stroke="#191919" stroke-width="0.35 px" style="stroke-width:0.35;stroke-miterlimit:4;stroke-dasharray:none;fill:#cccccc;fill-opacity:1.0;fill-rule: evenodd"/>
<path id="Feature_f0067"  d="M 6.0 3.0 L 4.0 3.0 L 4.0 3.0 L 6.0 3.0 L 6.0 3.0 Z " stroke="#191919" stroke-width="0.35 px" style="stroke-width:0.35;stroke-miterlimit:4;stroke-dasharray:none;fill:#cccccc;fill-opacity:1.0;fill-rule: evenodd"/>
<path id="Feature_f0068"  d="M 6.0 2.0 L 6.0 3.0 L 6.0 3.0 L 6.0 2.0 L 6.0 2.0 Z " stroke="#191919" stroke-width="0.35 px" style="stroke-width:0.35;stroke-miterlimit:4;stroke-dasharray:none;fill:#cccccc;fill-opacity:1.0;fill-rule: evenodd"/>
<path id="Feature_f0069"  d="M 6.95 1.45151724426986 L 6.0 2.0 L 6.0 2.0 L 6.95 1.45151724426986 L 6.95 1.45151724426986 Z " stroke="#191919" stroke-width="0.35 px" style="stroke-width:0.35;stroke-miterlimit:4;stroke-dasharray:none;fill:#cccccc;fill-opacity:1.0;fill-rule: evenodd"/>
<path id="Feature_f0070"  d="M 6.95 -1.45151724426986 L 6.95 1.45151724426986 L 6.95 1.45151724426986 L 6.95 -1.45151724426986 L 6.95 -1.45151724426986 Z " stroke="#191919" stroke-width="0.35 px" style="stroke-width:0.35;stroke-miterlimit:4;stroke-dasharray:none;fill:#cccccc;fill-opacity:1.0;fill-rule: evenodd"/>
<path id="Feature_f0071"  d="M 6.00000000000001 -2.0 L 6.95 -1.45151724426986 L 6.95 -1.45151724426986 L 6.00000000000001 -2.0 L 6.00000000000001 -2.0 Z " stroke="#191919" stroke-width="0.35 px" style="stroke-width:0.35;stroke-miterlimit:4;stroke-dasharray:none;fill:#cccccc;fill-opacity:1.0;fill-rule: evenodd"/>
<path id="Feature_f0072"  d="M 6.0 -2.25 L 6.00000000000001 -2.0 L 6.00000000000001 -2.0 L 6.0 -2.25 L 6.0 -2.25 Z " stroke="#191919" stroke-width="0.35 px" style="stroke-width:0.35;stroke-miterlimit:4;stroke-dasharray:none;fill:#cccccc;fill-opacity:1.0;fill-rule: evenodd"/>
<path id="Feature_f0073"  d="M 4.0 -2.0 L 4.0 -2.25 L 4.0 -2.25 L 4.0 -2.0 L 4.0 -2.0 Z " stroke="#191919" stroke-width="0.35 px" style="stroke-width:0.35;stroke-miterlimit:4;stroke-dasharray:none;fill:#cccccc;fill-opacity:1.0;fill-rule: evenodd"/>
<path id="Feature_f0074"  d="M 3.05 -1.45151724426986 L 4.0 -2.0 L 4.0 -2.0 L 3.05 -1.45151724426986 L 3.05 -1.45151724426986 Z " stroke="#191919" stroke-width="0.35 px" style="stroke-width:0.35;stroke-miterlimit:4;stroke-dasharray:none;fill:#cccccc;fill-opacity:1.0;fill-rule: evenodd"/>
<path id="Feature_f0075"  d="M 3.05 1.45151724426986 L 3.05 -1.45151724426986 L 3.05 -1.45151724426986 L 3.05 1.45151724426986 L 3.05 1.45151724426986 Z " stroke="#191919" stroke-width="0.35 px" style="stroke-width:0.35;stroke-miterlimit:4;stroke-dasharray:none;fill:#cccccc;fill-opacity:1.0;fill-rule: evenodd"/>
<path id="Feature_f0076"  d="M 4.0 2.0 L 3.05 1.45151724426986 L 3.05 1.45151724426986 L 4.0 2.0 L 4.0 2.0 Z " stroke="#191919" stroke-width="0.35 px" style="stroke-width:0.35;stroke-miterlimit:4;stroke-dasharray:none;fill:#cccccc;fill-opacity:1.0;fill-rule: evenodd"/>
<path id="Feature_f0077"  d="M 4.0 -2.25 L 6.0 -2.25 M 6.0 -2.25 L 6.0 -2.55 L 4.0 -2.55 M 4.000000000000001 -2.55 L 4.0 -2.25 Z " stroke="#191919" stroke-width="0.35 px" style="stroke-width:0.35;stroke-miterlimit:4;stroke-dasharray:none;fill:#cccccc;fill-opacity:1.0;fill-rule: evenodd"/>
<path id="Feature_f0078"  d="M 6.0 -2.35 L 4.0 -2.35 M 4.0 -2.35 L 4.0 -2.25 L 6.0 -2.25 M 6.0 -2.25 L 6.0 -2.35 Z " stroke="#191919" stroke-width="0.35 px" style="stroke-width:0.35;stroke-miterlimit:4;stroke-dasharray:none;fill:#cccccc;fill-opacity:1.0;fill-rule: evenodd"/>
<path id="Feature_f0079"  d="M 6.0 -2.35 L 6.0 -2.35 L 6.0 -2.55 L 6.0 -2.55 L 6.0 -2.35 Z " stroke="#191919" stroke-width="0.35 px" style="stroke-width:0.35;stroke-miterlimit:4;stroke-dasharray:none;fill:#cccccc;fill-opacity:1.0;fill-rule: evenodd"/>
<path id="Feature_f0080"  d="M 6.0 -2.55 L 4.0 -2.55 L 4.0 -2.55 L 6.0 -2.55 L 6.0 -2.55 Z " stroke="#191919" stroke-width="0.35 px" style="stroke-width:0.35;stroke-miterlimit:4;stroke-dasharray:none;fill:#cccccc;fill-opacity:1.0;fill-rule: evenodd"/>
<path id="Feature_f0081"  d="M 4.0 -2.35 L 4.0 -2.35 L 4.0 -2.55 L 4.0 -2.55 L 4.0 -2.35 Z " stroke="#191919" stroke-width="0.35 px" style="stroke-width:0.35;stroke-miterlimit:4;stroke-dasharray:none;fill:#cccccc;fill-opacity:1.0;fill-rule: evenodd"/>
<path id="Feature_f0082"  d="M 4.0 -2.35 L 6.0 -2.35 L 6.0 -2.35 L 4.0 -2.35 L 4.0 -2.35 Z " stroke="#191919" stroke-width="0.35 px" style="stroke-width:0.35;stroke-miterlimit:4;stroke-dasharray:none;fill:#cccccc;fill-opacity:1.0;fill-rule: evenodd"/>
<path id="Feature_f0083"  d="M 4.0 -2.35 M 4.0 -2.35 L 4.0 -2.25 L 4.0 -2.25 M 4.0 -2.25 L 4.000000000000001 -2.55 L 4.0 -2.35 Z " stroke="#191919" stroke-width="0.35 px" style="stroke-width:0.35;stroke-miterlimit:4;stroke-dasharray:none;fill:#cccccc;fill-opacity:1.0;fill-rule: evenodd"/>
<path id="Feature_f0084"  d="M 6.0 -2.25 M 6.0 -2.25 L 6.0 -2.35 L 6.0 -2.55 M 6.0 -2.55 L 6.0 -2.25 L 6.0 -2.25 Z " stroke="#191919" stroke-width="0.35 px" style="stroke-width:0.35;stroke-miterlimit:4;stroke-dasharray:none;fill:#cccccc;fill-opacity:1.0;fill-rule: evenodd"/>
<path id="Feature_f0085"  d="M 4.0 -2.55 L 6.0 -2.55 M 6.0 -2.55 L 6.0 -2.3276457135307558 L 4.0 -2.32764571353075 M 4.0 -2.3276457135307504 L 4.0 -2.55 Z " stroke="#191919" stroke-width="0.35 px" style="stroke-width:0.35;stroke-miterlimit:4;stroke-dasharray:none;fill:#cccccc;fill-opacity:1.0;fill-rule: evenodd"/>
<path id="Feature_f0086"  d="M 6.0 -2.27588190451025 L 4.0 -2.27588190451025 M 4.0 -2.275881904510249 L 4.0 -2.35 L 6.0 -2.35 M 6.0 -2.35 L 6.0 -2.2758819045102516 Z " stroke="#191919" stroke-width="0.35 px" style="stroke-width:0.35;stroke-miterlimit:4;stroke-dasharray:none;fill:#cccccc;fill-opacity:1.0;fill-rule: evenodd"/>
<path id="Feature_f0087"  d="M 6.0 -0.344030251932112 L 6.0 -2.27588190451025 L 6.0 -2.32764571353075 L 6.0 -0.395794060952615 L 6.0 -0.344030251932112 Z " stroke="#191919" stroke-width="0.35 px" style="stroke-width:0.35;stroke-miterlimit:4;stroke-dasharray:none;fill:#cccccc;fill-opacity:1.0;fill-rule: evenodd"/>
<path id="Feature_f0088"  d="M 6.0 -2.32764571353075 L 4.0 -2.32764571353075 L 4.0 -0.395794060952615 L 6.0 -0.395794060952615 L 6.0 -2.32764571353075 Z " stroke="#191919" stroke-width="0.35 px" style="stroke-width:0.35;stroke-miterlimit:4;stroke-dasharray:none;fill:#cccccc;fill-opacity:1.0;fill-rule: evenodd"/>
<path id="Feature_f0089"  d="M 4.0 -2.27588190451025 L 4.0 -0.344030251932112 L 4.0 -0.395794060952615 L 4.0 -2.32764571353075 L 4.0 -2.27588190451025 Z " stroke="#191919" stroke-width="0.35 px" style="stroke-width:0.35;stroke-miterlimit:4;stroke-dasharray:none;fill:#cccccc;fill-opacity:1.0;fill-rule: evenodd"/>
<path id="Feature_f0090"  d="M 4.0 -0.344030251932113 L 6.0 -0.344030251932113 L 6.0 -2.27588190451025 L 4.0 -2.27588190451025 L 4.0 -0.344030251932112 Z " stroke="#191919" stroke-width="0.35 px" style="stroke-width:0.35;stroke-miterlimit:4;stroke-dasharray:none;fill:#cccccc;fill-opacity:1.0;fill-rule: evenodd"/>
<path id="Feature_f0091"  d="M 4.0 -2.275881904510249 M 4.0 -2.275881904510249 L 4.0 -2.35 L 4.0 -2.55 M 4.0 -2.55 L 4.0 -2.3276457135307504 L 4.0 -2.27588190451025 Z " stroke="#191919" stroke-width="0.35 px" style="stroke-width:0.35;stroke-miterlimit:4;stroke-dasharray:none;fill:#cccccc;fill-opacity:1.0;fill-rule: evenodd"/>
<path id="Feature_f0092"  d="M 6.0 -2.35 M 6.0 -2.35 L 6.0 -2.2758819045102516 L 6.0 -2.32764571353075 M 6.0 -2.3276457135307558 L 6.0 -2.55 L 6.0 -2.35 Z " stroke="#191919" stroke-width="0.35 px" style="stroke-width:0.35;stroke-miterlimit:4;stroke-dasharray:none;fill:#cccccc;fill-opacity:1.0;fill-rule: evenodd"/>
<path id="Feature_f0093"  d="M 4.0 -0.395794060952615 L 6.0 -0.395794060952615 M 6.0 -0.39579406095261627 L 6.0 1.057300048018134 L 4.0 1.05730004801814 M 3.9999999999999996 1.0573000480181411 L 3.999999999999999 -0.39579406095261316 Z " stroke="#191919" stroke-width="0.35 px" style="stroke-width:0.35;stroke-miterlimit:4;stroke-dasharray:none;fill:#cccccc;fill-opacity:1.0;fill-rule: evenodd"/>
<path id="Feature_f0094"  d="M 6.0 1.0398688994686 L 4.0 1.0398688994686 M 3.999999999999999 1.0398688994686016 L 3.9999999999999987 -0.34403025193210945 L 6.0 -0.344030251932113 M 6.0 -0.3440302519321111 L 5.999999999999999 1.0398688994686034 Z " stroke="#191919" stroke-width="0.35 px" style="stroke-width:0.35;stroke-miterlimit:4;stroke-dasharray:none;fill:#cccccc;fill-opacity:1.0;fill-rule: evenodd"/>
<path id="Feature_f0095"  d="M 6.0 1.0573000480181327 L 6.0 1.0398688994686 L 6.0 1.53796624851448 L 5.999999999999999 1.55539739706401 L 6.0 1.05730004801814 Z " stroke="#191919" stroke-width="0.35 px" style="stroke-width:0.35;stroke-miterlimit:4;stroke-dasharray:none;fill:#cccccc;fill-opacity:1.0;fill-rule: evenodd"/>
<path id="Feature_f0096"  d="M 4.0 1.55539739706401 L 4.5 2.05349474610988 L 5.500000000000002 2.05349474610988 L 5.999999999999999 1.55539739706401 L 6.0 1.05730004801814 L 4.0 1.05730004801814 L 4.0 1.55539739706401 Z " stroke="#191919" stroke-width="0.35 px" style="stroke-width:0.35;stroke-miterlimit:4;stroke-dasharray:none;fill:#cccccc;fill-opacity:1.0;fill-rule: evenodd"/>
<path id="Feature_f0097"  d="M 4.0 1.53796624851448 L 4.0 1.55539739706401 L 4.0 1.05730004801814 L 4.0 1.0398688994686 L 4.0 1.53796624851448 Z " stroke="#191919" stroke-width="0.35 px" style="stroke-width:0.35;stroke-miterlimit:4;stroke-dasharray:none;fill:#cccccc;fill-opacity:1.0;fill-rule: evenodd"/>
<path id="Feature_f0098"  d="M 4.5 2.03606359756035 L 4.0 1.53796624851448 L 4.0 1.0398688994686 L 6.0 1.03986889946861 L 6.0 1.53796624851448 L 5.500000000000002 2.03606359756035 L 4.5 2.03606359756035 Z " stroke="#191919" stroke-width="0.35 px" style="stroke-width:0.35;stroke-miterlimit:4;stroke-dasharray:none;fill:#cccccc;fill-opacity:1.0;fill-rule: evenodd"/>
<path id="Feature_f0099"  d="M 5.500000000000002 2.053494746109883 L 5.500000000000002 2.03606359756035 L 4.5 2.03606359756035 L 4.5 2.05349474610988 L 5.500000000000002 2.05349474610988 Z " stroke="#191919" stroke-width="0.35 px" style="stroke-width:0.35;stroke-miterlimit:4;stroke-dasharray:none;fill:#cccccc;fill-opacity:1.0;fill-rule: evenodd"/>
<path id="Feature_f0100"  d="M 3.999999999999999 1.0398688994686016 M 3.999999999999999 1.0398688994686016 L 3.9999999999999987 -0.34403025193210945 L 4.0 -0.395794060952615 M 3.9999999999999987 -0.39579406095261405 L 3.999999999999999 1.0573000480181405 L 4.0 1.0398688994686 Z " stroke="#191919" stroke-width="0.35 px" style="stroke-width:0.35;stroke-miterlimit:4;stroke-dasharray:none;fill:#cccccc;fill-opacity:1.0;fill-rule: evenodd"/>
<path id="Feature_f0101"  d="M 6.0 -0.3440302519321111 M 6.0 -0.3440302519321111 L 5.999999999999999 1.0398688994686034 L 6.0 1.05730004801814 M 6.0 1.057300048018135 L 6.0 -0.39579406095261493 L 6.0 -0.344030251932112 Z " stroke="#191919" stroke-width="0.35 px" style="stroke-width:0.35;stroke-miterlimit:4;stroke-dasharray:none;fill:#cccccc;fill-opacity:1.0;fill-rule: evenodd"/>
<path id="Feature_f0102"  d="M 6.0 1.555397397064013 L 6.0 1.53796624851448 L 5.500000000000002 2.03606359756035 L 5.500000000000002 2.05349474610988 L 5.999999999999999 1.55539739706401 Z " stroke="#191919" stroke-width="0.35 px" style="stroke-width:0.35;stroke-miterlimit:4;stroke-dasharray:none;fill:#cccccc;fill-opacity:1.0;fill-rule: evenodd"/>
<path id="Feature_f0103"  d="M 4.5 2.0534947461098843 L 4.5 2.036063597560352 L 4.0 1.53796624851448 L 4.0 1.55539739706401 L 4.5 2.05349474610988 Z " stroke="#191919" stroke-width="0.35 px" style="stroke-width:0.35;stroke-miterlimit:4;stroke-dasharray:none;fill:#cccccc;fill-opacity:1.0;fill-rule: evenodd"/>
<path id="Feature_f0104"  d="M -1.2369316876857595 -0.39999999999856123 L 1.2369316876857603 -0.39999999999856123 A 1.3 1.3 0 0 0 -1.23693 -0.4Z " stroke="#191919" stroke-width="0.35 px" style="stroke-width:0.35;stroke-miterlimit:4;stroke-dasharray:none;fill:#cccccc;fill-opacity:1.0;fill-rule: evenodd"/>
<path id="Feature_f0105"  d="M 1.2369316876857603 0.3999999999985608 L -1.2369316876857595 0.3999999999985608 A 1.3 1.3 0 0 0 1.23693 0.4Z " stroke="#191919" stroke-width="0.35 px" style="stroke-width:0.35;stroke-miterlimit:4;stroke-dasharray:none;fill:#cccccc;fill-opacity:1.0;fill-rule: evenodd"/>
<path id="Feature_f0106"  d="M -1.7549928774787493 -0.3999999999985612 C -1.7549946342501994 -0.3999999999985612 -1.7544631630967356 -0.3999999999985616 -1.75340460098387 -0.39999999999856173 C -1.7522476048787774 -0.3999999999985619 -1.7504609334572043 -0.3999999999985615 -1.7480505255499184 -0.39999999999856134 C -1.7454335086252801 -0.3999999999985612 -1.7420812449313159 -0.3999999999985612 -1.7380107752915661 -0.3999999999985612 C -1.731508200097133 -0.3999999999985612 -1.7231727588713108 -0.3999999999985612 -1.7131076293658047 -0.3999999999985612 C -1.699751722913104 -0.3999999999985612 -1.6833501955522325 -0.3999999999985612 -1.664259123501845 -0.3999999999985612 C -1.640423769989899 -0.3999999999985612 -1.6123960298549682 -0.3999999999985612 -1.5810894286197983 -0.3999999999985614 C -1.554901379908204 -0.3999999999985616 -1.5264189928883956 -0.39999999999856195 -1.4962746689769415 -0.39999999999856184 C -1.4720751200950695 -0.39999999999856184 -1.4468045009224575 -0.3999999999985615 -1.4207861409785096 -0.3999999999985614 C -1.4012117630037841 -0.39999999999856123 -1.381214164070116 -0.39999999999856123 -1.3609402415397414 -0.39999999999856123 C -1.3406475691487965 -0.39999999999856123 -1.3200780618220413 -0.39999999999856123 -1.2993755211453273 -0.39999999999856123 C -1.2786458768267441 -0.39999999999856123 -1.2577828505972595 -0.39999999999856123 -1.2369316876857595 -0.39999999999856123 A 1.3 1.3 0 0 1 1.23693 -0.4C 1.2577828505972604 -0.39999999999856123 1.278645876826745 -0.39999999999856123 1.2993755211453282 -0.3999999999985614 C 1.320078061822042 -0.39999999999856156 1.340647569148797 -0.39999999999856184 1.3609402415397414 -0.39999999999856184 C 1.3812141640701168 -0.3999999999985619 1.4012117630037855 -0.3999999999985616 1.4207861409785114 -0.39999999999856145 C 1.446804500922459 -0.39999999999856123 1.4720751200950706 -0.39999999999856123 1.4962746689769424 -0.39999999999856123 C 1.5264189928883964 -0.39999999999856123 1.5549013799082054 -0.39999999999856123 1.5810894286197996 -0.3999999999985612 C 1.6123960298549695 -0.3999999999985612 1.6404237699899002 -0.3999999999985612 1.6642591235018462 -0.3999999999985612 C 1.6833501955522339 -0.3999999999985612 1.6997517229131054 -0.3999999999985612 1.713107629365806 -0.3999999999985612 C 1.7231727588713122 -0.3999999999985612 1.7315082000971342 -0.3999999999985612 1.7380107752915674 -0.3999999999985612 C 1.7420812449313174 -0.3999999999985612 1.7454335086252815 -0.3999999999985612 1.7480505255499197 -0.3999999999985612 C 1.7504609334572057 -0.3999999999985612 1.7522476048787787 -0.3999999999985612 1.753404600983871 -0.3999999999985612 C 1.7544631630967367 -0.3999999999985612 1.7549946342502007 -0.3999999999985612 1.7549928774787507 -0.3999999999985612 A 1.8 1.8 0 0 0 -1.75499 -0.4Z " stroke="#191919" stroke-width="0.35 px" style="stroke-width:0.35;stroke-miterlimit:4;stroke-dasharray:none;fill:#cccccc;fill-opacity:1.0;fill-rule: evenodd"/>
<path id="Feature_f0107"  d="M 1.7549928774787507 0.39999999999856184 C 1.7549946342502007 0.39999999999856184 1.7544631630967369 0.3999999999985614 1.7534046009838713 0.3999999999985611 C 1.7522476048787787 0.39999999999856084 1.7504609334572057 0.39999999999856084 1.7480505255499197 0.39999999999856095 C 1.7454335086252815 0.3999999999985611 1.7420812449313174 0.3999999999985614 1.7380107752915679 0.3999999999985615 C 1.7315082000971345 0.3999999999985616 1.723172758871312 0.3999999999985613 1.7131076293658052 0.39999999999856106 C 1.699751722913105 0.39999999999856084 1.6833501955522339 0.39999999999856084 1.6642591235018465 0.399999999998561 C 1.6404237699899002 0.3999999999985612 1.6123960298549693 0.3999999999985615 1.5810894286197992 0.3999999999985616 C 1.5549013799082054 0.3999999999985618 1.5264189928883969 0.3999999999985618 1.4962746689769433 0.39999999999856156 C 1.472075120095071 0.3999999999985614 1.446804500922459 0.39999999999856106 1.4207861409785112 0.39999999999856095 C 1.4012117630037852 0.3999999999985608 1.3812141640701168 0.3999999999985608 1.3609402415397416 0.39999999999856095 C 1.3406475691487971 0.3999999999985611 1.320078061822042 0.39999999999856145 1.2993755211453282 0.3999999999985616 C 1.278645876826745 0.3999999999985618 1.2577828505972604 0.3999999999985618 1.2369316876857603 0.3999999999985618 A 1.3 1.3 0 0 1 -1.23693 0.4C -1.2577828505972595 0.3999999999985618 -1.2786458768267444 0.3999999999985618 -1.2993755211453277 0.3999999999985616 C -1.3200780618220413 0.3999999999985614 -1.3406475691487962 0.3999999999985611 -1.3609402415397405 0.3999999999985611 C -1.3812141640701157 0.39999999999856106 -1.4012117630037844 0.3999999999985614 -1.4207861409785103 0.3999999999985615 C -1.4468045009224582 0.39999999999856156 -1.4720751200950697 0.39999999999856123 -1.4962746689769417 0.39999999999856106 C -1.5264189928883956 0.3999999999985608 -1.554901379908204 0.3999999999985608 -1.5810894286197978 0.39999999999856095 C -1.612396029854968 0.3999999999985612 -1.6404237699898991 0.39999999999856156 -1.6642591235018451 0.39999999999856173 C -1.6833501955522325 0.39999999999856184 -1.6997517229131038 0.39999999999856184 -1.7131076293658043 0.3999999999985616 C -1.7231727588713106 0.3999999999985614 -1.731508200097133 0.39999999999856106 -1.7380107752915661 0.39999999999856095 C -1.742081244931316 0.39999999999856084 -1.7454335086252801 0.39999999999856084 -1.7480505255499184 0.39999999999856084 C -1.7504609334572043 0.39999999999856084 -1.7522476048787772 0.39999999999856084 -1.7534046009838695 0.39999999999856084 C -1.7544631630967353 0.39999999999856084 -1.7549946342501994 0.39999999999856084 -1.7549928774787493 0.39999999999856084 A 1.8 1.8 0 0 0 1.75499 0.4Z " stroke="#191919" stroke-width="0.35 px" style="stroke-width:0.35;stroke-miterlimit:4;stroke-dasharray:none;fill:#cccccc;fill-opacity:1.0;fill-rule: evenodd"/>
<circle cx="1.2434497875801772e-15" cy="1.5777218104420236e-30" r="1.8" stroke="#191919" stroke-width="0.35 px" style="stroke-width:0.35;stroke-miterlimit:4;stroke-dasharray:none;fill:#cccccc"/>
<path id="Feature_f0109"  d="M -1.7549928774787489 -0.3999999999985611 A 1.8 1.8 0 0 0 -1.75499 0.4L 1.754992877478751 0.3999999999985609 A 1.8 1.8 0 0 0 1.8 1.05301e-16A 1.8 1.8 0 0 0 1.75499 -0.4L -1.7549928774787489 -0.3999999999985611 Z " stroke="#191919" stroke-width="0.35 px" style="stroke-width:0.35;stroke-miterlimit:4;stroke-dasharray:none;fill:#cccccc;fill-opacity:1.0;fill-rule: evenodd"/>
<path id="Feature_f0110"  d="M -1.2369316876857595 0.39999999999856084 L 1.2369316876857603 0.3999999999985608 C 1.2577828505972604 0.3999999999985618 1.278645876826745 0.39999999999856173 1.2993755211453277 0.39999999999856156 C 1.3200780618220418 0.39999999999856145 1.3406475691487967 0.3999999999985611 1.3609402415397414 0.39999999999856095 C 1.3812141640701168 0.3999999999985608 1.4012117630037852 0.3999999999985608 1.4207861409785112 0.3999999999985609 C 1.446804500922459 0.39999999999856106 1.472075120095071 0.3999999999985614 1.4962746689769433 0.39999999999856156 C 1.5264189928883969 0.3999999999985618 1.5549013799082054 0.3999999999985618 1.5810894286197992 0.3999999999985617 C 1.6123960298549693 0.3999999999985615 1.6404237699899002 0.3999999999985611 1.6642591235018462 0.39999999999856095 C 1.6833501955522339 0.39999999999856084 1.699751722913105 0.39999999999856084 1.7131076293658052 0.39999999999856106 C 1.723172758871312 0.3999999999985613 1.7315082000971345 0.3999999999985616 1.7380107752915679 0.3999999999985615 C 1.7420812449313177 0.3999999999985614 1.7454335086252817 0.39999999999856106 1.74805052554992 0.39999999999856095 C 1.7504609334572057 0.39999999999856084 1.7522476048787787 0.39999999999856084 1.7534046009838713 0.3999999999985611 C 1.7544631630967369 0.3999999999985614 1.7549946342502007 0.39999999999856184 1.7549928774787507 0.39999999999856184 L 1.754992877478751 0.3999999999985609 L -1.7549928774787489 0.3999999999985609 L -1.7549928774787493 0.39999999999856084 C -1.7549946342501994 0.39999999999856084 -1.7544631630967356 0.39999999999856084 -1.75340460098387 0.39999999999856084 C -1.7522476048787774 0.39999999999856084 -1.7504609334572043 0.39999999999856084 -1.7480505255499184 0.39999999999856084 C -1.74543350862528 0.39999999999856084 -1.7420812449313159 0.39999999999856084 -1.7380107752915661 0.39999999999856095 C -1.7315082000971331 0.39999999999856106 -1.7231727588713106 0.3999999999985614 -1.7131076293658043 0.3999999999985616 C -1.6997517229131038 0.39999999999856184 -1.6833501955522325 0.39999999999856184 -1.6642591235018451 0.39999999999856173 C -1.640423769989899 0.3999999999985615 -1.6123960298549682 0.3999999999985611 -1.5810894286197983 0.39999999999856095 C -1.554901379908204 0.3999999999985608 -1.5264189928883958 0.39999999999856084 -1.496274668976942 0.39999999999856106 C -1.4720751200950697 0.3999999999985612 -1.446804500922458 0.3999999999985615 -1.4207861409785103 0.39999999999856145 C -1.4012117630037841 0.3999999999985614 -1.3812141640701157 0.39999999999856106 -1.3609402415397405 0.3999999999985611 C -1.340647569148796 0.3999999999985612 -1.3200780618220413 0.3999999999985615 -1.2993755211453277 0.3999999999985616 C -1.2786458768267444 0.3999999999985618 -1.2577828505972595 0.3999999999985618 -1.2369316876857595 0.3999999999985608 Z " stroke="#191919" stroke-width="0.35 px" style="stroke-width:0.35;stroke-miterlimit:4;stroke-dasharray:none;fill:#cccccc;fill-opacity:1.0;fill-rule: evenodd"/>
<path id="Feature_f0111"  d="M 1.2369316876857603 -0.3999999999985613 L -1.2369316876857595 -0.39999999999856123 C -1.2577828505972595 -0.39999999999856123 -1.2786458768267441 -0.3999999999985612 -1.2993755211453273 -0.3999999999985612 C -1.3200780618220413 -0.3999999999985612 -1.3406475691487962 -0.3999999999985612 -1.360940241539741 -0.3999999999985612 C -1.381214164070116 -0.3999999999985612 -1.4012117630037841 -0.3999999999985612 -1.4207861409785096 -0.3999999999985613 C -1.4468045009224575 -0.3999999999985615 -1.4720751200950695 -0.39999999999856184 -1.4962746689769415 -0.39999999999856184 C -1.5264189928883956 -0.39999999999856195 -1.554901379908204 -0.3999999999985616 -1.5810894286197983 -0.3999999999985614 C -1.6123960298549682 -0.3999999999985612 -1.6404237699898987 -0.3999999999985612 -1.6642591235018447 -0.3999999999985612 C -1.6833501955522325 -0.3999999999985612 -1.699751722913104 -0.3999999999985612 -1.7131076293658047 -0.3999999999985612 C -1.7231727588713108 -0.3999999999985612 -1.731508200097133 -0.3999999999985612 -1.7380107752915661 -0.3999999999985612 C -1.7420812449313159 -0.3999999999985612 -1.7454335086252801 -0.3999999999985612 -1.7480505255499184 -0.39999999999856134 C -1.7504609334572043 -0.3999999999985615 -1.7522476048787774 -0.39999999999856184 -1.75340460098387 -0.39999999999856173 C -1.7544631630967356 -0.3999999999985616 -1.7549946342501994 -0.3999999999985612 -1.7549928774787493 -0.3999999999985612 L -1.7549928774787489 -0.3999999999985611 L 1.754992877478751 -0.3999999999985611 L 1.7549928774787507 -0.3999999999985612 C 1.7549946342502007 -0.3999999999985612 1.7544631630967367 -0.3999999999985612 1.7534046009838713 -0.3999999999985612 C 1.7522476048787787 -0.3999999999985612 1.7504609334572057 -0.3999999999985612 1.7480505255499197 -0.3999999999985612 C 1.7454335086252815 -0.3999999999985612 1.7420812449313174 -0.3999999999985612 1.7380107752915677 -0.3999999999985612 C 1.7315082000971345 -0.3999999999985612 1.7231727588713122 -0.3999999999985612 1.7131076293658059 -0.3999999999985612 C 1.6997517229131054 -0.3999999999985612 1.6833501955522339 -0.3999999999985612 1.664259123501846 -0.3999999999985612 C 1.6404237699899 -0.3999999999985612 1.6123960298549695 -0.39999999999856123 1.5810894286197996 -0.3999999999985613 C 1.5549013799082054 -0.39999999999856123 1.5264189928883964 -0.39999999999856123 1.4962746689769424 -0.39999999999856123 C 1.4720751200950706 -0.39999999999856123 1.4468045009224588 -0.39999999999856123 1.4207861409785114 -0.39999999999856145 C 1.4012117630037855 -0.3999999999985616 1.381214164070117 -0.39999999999856195 1.3609402415397418 -0.3999999999985619 C 1.3406475691487971 -0.39999999999856184 1.3200780618220422 -0.3999999999985615 1.2993755211453282 -0.3999999999985614 C 1.278645876826745 -0.39999999999856123 1.2577828505972604 -0.39999999999856123 1.2369316876857603 -0.39999999999856123 Z " stroke="#191919" stroke-width="0.35 px" style="stroke-width:0.35;stroke-miterlimit:4;stroke-dasharray:none;fill:#cccccc;fill-opacity:1.0;fill-rule: evenodd"/>
<circle cx="1.2434497875801772e-15" cy="1.5777218104420236e-30" r="1.8" stroke="#191919" stroke-width="0.35 px" style="stroke-width:0.35;stroke-miterlimit:4;stroke-dasharray:none;fill:#cccccc"/>
<circle cx="1.2434497875801772e-15" cy="1.5777218104420236e-30" r="1.25" stroke="#191919" stroke-width="0.35 px" style="stroke-width:0.35;stroke-miterlimit:4;stroke-dasharray:none;fill:#cccccc"/>
<circle cx="3.1123109389197612e-15" cy="4.0413344371862704e-16" r="0.899999999999996" stroke="#191919" stroke-width="0.35 px" style="stroke-width:0.35;stroke-miterlimit:4;stroke-dasharray:none;fill:#cccccc"/>
<circle cx="3.1123109389197612e-15" cy="4.0413344371862704e-16" r="0.899999999999996" stroke="#191919" stroke-width="0.35 px" style="stroke-width:0.35;stroke-miterlimit:4;stroke-dasharray:none;fill:#cccccc"/>
<circle cx="3.678632499931756e-15" cy="5.26598123633362e-16" r="0.799999999999996" stroke="#191919" stroke-width="0.35 px" style="stroke-width:0.35;stroke-miterlimit:4;stroke-dasharray:none;fill:#cccccc"/>
<circle cx="3.678632499931756e-15" cy="5.26598123633362e-16" r="0.799999999999996" stroke="#191919" stroke-width="0.35 px" style="stroke-width:0.35;stroke-miterlimit:4;stroke-dasharray:none;fill:#cccccc"/>
<path id="Feature_f0118"  d="M 3.7630683123142368 -0.39999999999856123 L 6.236931687685757 -0.39999999999856123 A 1.3 1.3 0 0 0 3.76307 -0.4Z " stroke="#191919" stroke-width="0.35 px" style="stroke-width:0.35;stroke-miterlimit:4;stroke-dasharray:none;fill:#cccccc;fill-opacity:1.0;fill-rule: evenodd"/>
<path id="Feature_f0119"  d="M 6.236931687685757 0.3999999999985608 L 3.7630683123142368 0.3999999999985608 A 1.3 1.3 0 0 0 6.23693 0.4Z " stroke="#191919" stroke-width="0.35 px" style="stroke-width:0.35;stroke-miterlimit:4;stroke-dasharray:none;fill:#cccccc;fill-opacity:1.0;fill-rule: evenodd"/>
<path id="Feature_f0120"  d="M 3.2450071225212467 -0.3999999999985612 C 3.2450053657497966 -0.3999999999985612 3.245536836903261 -0.3999999999985616 3.2465953990161265 -0.39999999999856173 C 3.247752395121219 -0.3999999999985619 3.249539066542792 -0.3999999999985615 3.251949474450078 -0.39999999999856134 C 3.2545664913747165 -0.3999999999985612 3.2579187550686806 -0.3999999999985612 3.2619892247084303 -0.3999999999985612 C 3.2684917999028635 -0.3999999999985612 3.276827241128686 -0.3999999999985612 3.2868923706341917 -0.3999999999985612 C 3.300248277086892 -0.3999999999985612 3.3166498044477635 -0.3999999999985612 3.3357408764981513 -0.3999999999985612 C 3.3595762300100973 -0.3999999999985612 3.387603970145028 -0.3999999999985612 3.4189105713801977 -0.3999999999985614 C 3.445098620091792 -0.3999999999985616 3.4735810071116004 -0.39999999999856195 3.5037253310230545 -0.39999999999856184 C 3.5279248799049268 -0.39999999999856184 3.553195499077539 -0.3999999999985615 3.5792138590214866 -0.3999999999985614 C 3.598788236996212 -0.39999999999856123 3.61878583592988 -0.39999999999856123 3.639059758460255 -0.39999999999856123 C 3.6593524308512 -0.39999999999856123 3.679921938177955 -0.39999999999856123 3.700624478854669 -0.39999999999856123 C 3.721354123173252 -0.39999999999856123 3.7422171494027365 -0.39999999999856123 3.7630683123142368 -0.39999999999856123 A 1.3 1.3 0 0 1 6.23693 -0.4C 6.257782850597256 -0.39999999999856123 6.278645876826741 -0.39999999999856123 6.299375521145324 -0.3999999999985614 C 6.320078061822038 -0.39999999999856156 6.340647569148793 -0.39999999999856184 6.360940241539737 -0.39999999999856184 C 6.381214164070113 -0.3999999999985619 6.401211763003781 -0.3999999999985616 6.420786140978507 -0.39999999999856145 C 6.446804500922455 -0.39999999999856123 6.472075120095067 -0.39999999999856123 6.496274668976938 -0.39999999999856123 C 6.5264189928883924 -0.39999999999856123 6.554901379908201 -0.39999999999856123 6.581089428619796 -0.3999999999985612 C 6.612396029854966 -0.3999999999985612 6.640423769989897 -0.3999999999985612 6.664259123501843 -0.3999999999985612 C 6.68335019555223 -0.3999999999985612 6.699751722913102 -0.3999999999985612 6.713107629365803 -0.3999999999985612 C 6.723172758871309 -0.3999999999985612 6.731508200097131 -0.3999999999985612 6.7380107752915634 -0.3999999999985612 C 6.742081244931313 -0.3999999999985612 6.745433508625277 -0.3999999999985612 6.748050525549916 -0.3999999999985612 C 6.750460933457202 -0.3999999999985612 6.752247604878774 -0.3999999999985612 6.753404600983867 -0.3999999999985612 C 6.754463163096733 -0.3999999999985612 6.754994634250197 -0.3999999999985612 6.754992877478747 -0.3999999999985612 A 1.8 1.8 0 0 0 3.24501 -0.4Z " stroke="#191919" stroke-width="0.35 px" style="stroke-width:0.35;stroke-miterlimit:4;stroke-dasharray:none;fill:#cccccc;fill-opacity:1.0;fill-rule: evenodd"/>
<path id="Feature_f0121"  d="M 6.754992877478747 0.39999999999856184 C 6.754994634250197 0.39999999999856184 6.754463163096734 0.3999999999985614 6.753404600983867 0.3999999999985611 C 6.752247604878774 0.39999999999856084 6.750460933457202 0.39999999999856084 6.748050525549916 0.39999999999856095 C 6.745433508625278 0.3999999999985611 6.742081244931314 0.3999999999985614 6.738010775291564 0.3999999999985615 C 6.73150820009713 0.3999999999985616 6.723172758871308 0.3999999999985613 6.713107629365801 0.39999999999856106 C 6.699751722913101 0.39999999999856084 6.683350195552229 0.39999999999856084 6.664259123501842 0.399999999998561 C 6.640423769989896 0.3999999999985612 6.612396029854965 0.3999999999985615 6.581089428619795 0.3999999999985616 C 6.554901379908201 0.3999999999985618 6.5264189928883924 0.3999999999985618 6.496274668976938 0.39999999999856156 C 6.472075120095067 0.3999999999985614 6.446804500922456 0.39999999999856106 6.420786140978508 0.39999999999856095 C 6.401211763003781 0.3999999999985608 6.381214164070113 0.3999999999985608 6.360940241539738 0.39999999999856095 C 6.340647569148794 0.3999999999985611 6.320078061822039 0.39999999999856145 6.299375521145324 0.3999999999985616 C 6.278645876826741 0.3999999999985618 6.257782850597256 0.3999999999985618 6.236931687685757 0.3999999999985618 A 1.3 1.3 0 0 1 3.76307 0.4C 3.7422171494027365 0.3999999999985618 3.721354123173252 0.3999999999985618 3.7006244788546687 0.3999999999985616 C 3.679921938177955 0.3999999999985614 3.6593524308512007 0.3999999999985611 3.6390597584602564 0.3999999999985611 C 3.618785835929881 0.39999999999856106 3.5987882369962123 0.3999999999985614 3.579213859021486 0.3999999999985615 C 3.5531954990775385 0.39999999999856156 3.5279248799049263 0.39999999999856123 3.5037253310230545 0.39999999999856106 C 3.4735810071116004 0.3999999999985608 3.445098620091792 0.3999999999985608 3.418910571380198 0.39999999999856095 C 3.3876039701450282 0.3999999999985612 3.359576230010097 0.39999999999856156 3.335740876498151 0.39999999999856173 C 3.3166498044477635 0.39999999999856184 3.3002482770868924 0.39999999999856184 3.286892370634192 0.3999999999985616 C 3.276827241128686 0.3999999999985614 3.268491799902863 0.39999999999856106 3.26198922470843 0.39999999999856095 C 3.25791875506868 0.39999999999856084 3.2545664913747165 0.39999999999856084 3.251949474450078 0.39999999999856084 C 3.249539066542792 0.39999999999856084 3.2477523951212186 0.39999999999856084 3.246595399016126 0.39999999999856084 C 3.245536836903261 0.39999999999856084 3.2450053657497966 0.39999999999856084 3.2450071225212467 0.39999999999856084 A 1.8 1.8 0 0 0 6.75499 0.4Z " stroke="#191919" stroke-width="0.35 px" style="stroke-width:0.35;stroke-miterlimit:4;stroke-dasharray:none;fill:#cccccc;fill-opacity:1.0;fill-rule: evenodd"/>
<circle cx="4.999999999999997" cy="1.5777218104420236e-30" r="1.8" stroke="#191919" stroke-width="0.35 px" style="stroke-width:0.35;stroke-miterlimit:4;stroke-dasharray:none;fill:#cccccc"/>
<path id="Feature_f0123"  d="M 3.2450071225212476 -0.3999999999985611 A 1.8 1.8 0 0 0 3.24501 0.4L 6.754992877478747 0.3999999999985609 A 1.8 1.8 0 0 0 6.8 1.05301e-16A 1.8 1.8 0 0 0 6.75499 -0.4L 3.2450071225212476 -0.3999999999985611 Z " stroke="#191919" stroke-width="0.35 px" style="stroke-width:0.35;stroke-miterlimit:4;stroke-dasharray:none;fill:#cccccc;fill-opacity:1.0;fill-rule: evenodd"/>
<path id="Feature_f0124"  d="M 3.7630683123142368 0.39999999999856084 L 6.236931687685757 0.3999999999985608 C 6.257782850597256 0.3999999999985618 6.278645876826741 0.39999999999856173 6.299375521145324 0.39999999999856156 C 6.320078061822039 0.39999999999856145 6.340647569148794 0.3999999999985611 6.360940241539738 0.39999999999856095 C 6.381214164070113 0.3999999999985608 6.401211763003781 0.3999999999985608 6.420786140978507 0.3999999999985609 C 6.446804500922455 0.39999999999856106 6.472075120095067 0.3999999999985614 6.496274668976939 0.39999999999856156 C 6.526418992888393 0.3999999999985618 6.554901379908202 0.3999999999985618 6.581089428619795 0.3999999999985617 C 6.612396029854965 0.3999999999985615 6.640423769989896 0.3999999999985611 6.664259123501842 0.39999999999856095 C 6.683350195552229 0.39999999999856084 6.699751722913101 0.39999999999856084 6.713107629365801 0.39999999999856106 C 6.723172758871308 0.3999999999985613 6.731508200097131 0.3999999999985616 6.7380107752915634 0.3999999999985615 C 6.742081244931313 0.3999999999985614 6.745433508625277 0.39999999999856106 6.748050525549916 0.39999999999856095 C 6.750460933457202 0.39999999999856084 6.752247604878775 0.39999999999856084 6.753404600983868 0.3999999999985611 C 6.754463163096734 0.3999999999985614 6.754994634250197 0.39999999999856184 6.754992877478747 0.39999999999856184 L 6.754992877478747 0.3999999999985609 L 3.2450071225212476 0.3999999999985609 L 3.2450071225212467 0.39999999999856084 C 3.2450053657497966 0.39999999999856084 3.245536836903261 0.39999999999856084 3.2465953990161265 0.39999999999856084 C 3.247752395121219 0.39999999999856084 3.249539066542792 0.39999999999856084 3.251949474450078 0.39999999999856084 C 3.2545664913747165 0.39999999999856084 3.2579187550686806 0.39999999999856084 3.2619892247084303 0.39999999999856095 C 3.268491799902863 0.39999999999856106 3.276827241128686 0.3999999999985614 3.286892370634192 0.3999999999985616 C 3.3002482770868924 0.39999999999856184 3.3166498044477635 0.39999999999856184 3.335740876498151 0.39999999999856173 C 3.3595762300100973 0.3999999999985615 3.3876039701450287 0.3999999999985611 3.4189105713801986 0.39999999999856095 C 3.445098620091792 0.3999999999985608 3.4735810071116004 0.39999999999856084 3.5037253310230545 0.39999999999856106 C 3.5279248799049263 0.3999999999985612 3.553195499077538 0.3999999999985615 3.579213859021486 0.39999999999856145 C 3.598788236996212 0.3999999999985614 3.618785835929881 0.39999999999856106 3.639059758460256 0.3999999999985611 C 3.6593524308512007 0.3999999999985612 3.679921938177955 0.3999999999985615 3.7006244788546687 0.3999999999985616 C 3.721354123173252 0.3999999999985618 3.7422171494027365 0.3999999999985618 3.7630683123142368 0.3999999999985608 Z " stroke="#191919" stroke-width="0.35 px" style="stroke-width:0.35;stroke-miterlimit:4;stroke-dasharray:none;fill:#cccccc;fill-opacity:1.0;fill-rule: evenodd"/>
<path id="Feature_f0125"  d="M 6.236931687685757 -0.3999999999985613 L 3.7630683123142368 -0.39999999999856123 C 3.7422171494027365 -0.39999999999856123 3.721354123173252 -0.3999999999985612 3.700624478854669 -0.3999999999985612 C 3.679921938177955 -0.3999999999985612 3.6593524308511998 -0.3999999999985612 3.639059758460255 -0.3999999999985612 C 3.6187858359298803 -0.3999999999985612 3.5987882369962123 -0.3999999999985612 3.579213859021487 -0.3999999999985613 C 3.5531954990775385 -0.3999999999985615 3.5279248799049268 -0.39999999999856184 3.5037253310230545 -0.39999999999856184 C 3.4735810071116004 -0.39999999999856195 3.445098620091792 -0.3999999999985616 3.4189105713801977 -0.3999999999985614 C 3.387603970145028 -0.3999999999985612 3.359576230010097 -0.3999999999985612 3.335740876498151 -0.3999999999985612 C 3.3166498044477635 -0.3999999999985612 3.300248277086892 -0.3999999999985612 3.2868923706341917 -0.3999999999985612 C 3.276827241128686 -0.3999999999985612 3.268491799902864 -0.3999999999985612 3.261989224708431 -0.3999999999985612 C 3.2579187550686806 -0.3999999999985612 3.254566491374716 -0.3999999999985612 3.251949474450078 -0.39999999999856134 C 3.249539066542792 -0.3999999999985615 3.2477523951212195 -0.39999999999856184 3.246595399016127 -0.39999999999856173 C 3.245536836903261 -0.3999999999985616 3.2450053657497966 -0.3999999999985612 3.2450071225212467 -0.3999999999985612 L 3.2450071225212476 -0.3999999999985611 L 6.754992877478747 -0.3999999999985611 L 6.754992877478747 -0.3999999999985612 C 6.754994634250197 -0.3999999999985612 6.754463163096733 -0.3999999999985612 6.753404600983868 -0.3999999999985612 C 6.752247604878775 -0.3999999999985612 6.750460933457202 -0.3999999999985612 6.748050525549916 -0.3999999999985612 C 6.745433508625277 -0.3999999999985612 6.742081244931313 -0.3999999999985612 6.7380107752915634 -0.3999999999985612 C 6.73150820009713 -0.3999999999985612 6.723172758871307 -0.3999999999985612 6.713107629365801 -0.3999999999985612 C 6.699751722913102 -0.3999999999985612 6.68335019555223 -0.3999999999985612 6.664259123501843 -0.3999999999985612 C 6.640423769989896 -0.3999999999985612 6.612396029854966 -0.39999999999856123 6.581089428619796 -0.3999999999985613 C 6.554901379908201 -0.39999999999856123 6.5264189928883924 -0.39999999999856123 6.496274668976938 -0.39999999999856123 C 6.472075120095067 -0.39999999999856123 6.446804500922455 -0.39999999999856123 6.420786140978507 -0.39999999999856145 C 6.401211763003781 -0.3999999999985616 6.381214164070112 -0.39999999999856195 6.360940241539737 -0.3999999999985619 C 6.340647569148794 -0.39999999999856184 6.320078061822038 -0.3999999999985615 6.299375521145325 -0.3999999999985614 C 6.278645876826742 -0.39999999999856123 6.257782850597256 -0.39999999999856123 6.236931687685757 -0.39999999999856123 Z " stroke="#191919" stroke-width="0.35 px" style="stroke-width:0.35;stroke-miterlimit:4;stroke-dasharray:none;fill:#cccccc;fill-opacity:1.0;fill-rule: evenodd"/>
<circle cx="4.999999999999997" cy="1.5777218104420236e-30" r="1.8" stroke="#191919" stroke-width="0.35 px" style="stroke-width:0.35;stroke-miterlimit:4;stroke-dasharray:none;fill:#cccccc"/>
<circle cx="4.999999999999997" cy="1.5777218104420236e-30" r="1.25" stroke="#191919" stroke-width="0.35 px" style="stroke-width:0.35;stroke-miterlimit:4;stroke-dasharray:none;fill:#cccccc"/>
<circle cx="4.999999999999999" cy="4.0413344371862704e-16" r="0.899999999999996" stroke="#191919" stroke-width="0.35 px" style="stroke-width:0.35;stroke-miterlimit:4;stroke-dasharray:none;fill:#cccccc"/>
<circle cx="4.999999999999999" cy="4.0413344371862704e-16" r="0.899999999999996" stroke="#191919" stroke-width="0.35 px" style="stroke-width:0.35;stroke-miterlimit:4;stroke-dasharray:none;fill:#cccccc"/>
<circle cx="5.0" cy="5.26598123633362e-16" r="0.799999999999996" stroke="#191919" stroke-width="0.35 px" style="stroke-width:0.35;stroke-miterlimit:4;stroke-dasharray:none;fill:#cccccc"/>
<circle cx="5.0" cy="5.26598123633362e-16" r="0.799999999999996" stroke="#191919" stroke-width="0.35 px" style="stroke-width:0.35;stroke-miterlimit:4;stroke-dasharray:none;fill:#cccccc"/>
<path id="Feature_f0132"  d="M 7.5 2.39937738570933 L 7.5 4.5 L -2.5 4.5 L -2.5 2.39937738570933 L 7.5 2.39937738570933 Z M 5.49999999999997 3.0 C 5.520095538876234 3.146254542908148 5.3700796654408585 3.4931805306402683 4.999999999999969 3.4999999999999996 C 4.6299203345590865 3.4931805306402683 4.479904461123701 3.1462545429081494 4.49999999999997 2.9999999999999996 C 4.479904461123697 2.8537454570918497 4.629920334559087 2.50681946935973 4.999999999999969 2.5000000000000004 C 5.370079665440854 2.506819469359731 5.52009553887624 2.853745457091851 5.49999999999997 3.0 Z M 0.499999999999968 3.0 C 0.5200955388762386 3.146254542908148 0.3700796654408512 3.4931805306402683 -3.197442310920451e-14 3.4999999999999996 C -0.3700796654409142 3.4931805306402683 -0.5200955388763029 3.1462545429081494 -0.500000000000032 2.9999999999999996 C -0.5200955388763029 2.8537454570918497 -0.3700796654409146 2.50681946935973 -3.197442310920451e-14 2.5000000000000004 C 0.3700796654408506 2.506819469359731 0.5200955388762389 2.853745457091851 0.499999999999968 3.0 Z " stroke="#191919" stroke-width="0.35 px" style="stroke-width:0.35;stroke-miterlimit:4;stroke-dasharray:none;fill:#cccccc;fill-opacity:1.0;fill-rule: evenodd"/>
<circle cx="4.99999999999997" cy="3.0" r="0.5" stroke="#191919" stroke-width="0.35 px" style="stroke-width:0.35;stroke-miterlimit:4;stroke-dasharray:none;fill:#cccccc"/>
<circle cx="4.99999999999997" cy="3.0" r="0.5" stroke="#191919" stroke-width="0.35 px" style="stroke-width:0.35;stroke-miterlimit:4;stroke-dasharray:none;fill:#cccccc"/>
<path id="Feature_f0135"  d="M 7.5 3.73923048454138 L 7.5 3.73923048454138 L 7.5 4.5 L 7.5 4.5 L 7.5 2.39937738570933 L 7.5 -2.46233031500393 L 7.5 -3.1 L 7.5 -3.1 L 7.5 3.06076951545874 L 7.5 3.06076951545874 L 7.5 3.73923048454138 Z " stroke="#191919" stroke-width="0.35 px" style="stroke-width:0.35;stroke-miterlimit:4;stroke-dasharray:none;fill:#cccccc;fill-opacity:1.0;fill-rule: evenodd"/>
<path id="Feature_f0136"  d="M 7.5 4.5 L 7.5 4.5 L -2.5 4.5 L -2.5 4.5 L 7.5 4.5 Z " stroke="#191919" stroke-width="0.35 px" style="stroke-width:0.35;stroke-miterlimit:4;stroke-dasharray:none;fill:#cccccc;fill-opacity:1.0;fill-rule: evenodd"/>
<path id="Feature_f0137"  d="M -2.5 4.5 L -2.5 4.5 L -2.5 2.39937738570933 L -2.5 -2.46233031500393 L -2.5 -3.1 L -2.5 -3.1 L -2.5 3.06076951545867 L -2.5 3.06076951545867 L -2.5 3.73923048454133 L -2.5 3.73923048454133 L -2.5 4.5 Z " stroke="#191919" stroke-width="0.35 px" style="stroke-width:0.35;stroke-miterlimit:4;stroke-dasharray:none;fill:#cccccc;fill-opacity:1.0;fill-rule: evenodd"/>
<circle cx="4.99999999999997" cy="0.0" r="1.825" stroke="#191919" stroke-width="0.35 px" style="stroke-width:0.35;stroke-miterlimit:4;stroke-dasharray:none;fill:#cccccc"/>
<circle cx="-3.19744231092045e-14" cy="3.0" r="0.5" stroke="#191919" stroke-width="0.35 px" style="stroke-width:0.35;stroke-miterlimit:4;stroke-dasharray:none;fill:#cccccc"/>
<path id="Feature_f0140"  d="M 7.04999999999544 -3.1 L 7.04999999999544 -3.1 L 2.94999999999544 -3.1 L 2.94999999999544 -3.1 L 4.45 -3.1 L 4.45 -3.1 L 0.549999999999999 -3.1 L 0.550000000000001 -3.1 L 2.04999999999544 -3.1 L 2.04999999999544 -3.1 L -2.05000000000456 -3.1 L -2.05000000000456 -3.1 L -0.55 -3.1 L -0.550000000000001 -3.1 L -2.5 -3.1 L -2.5 -3.1 L 7.5 -3.1 L 7.5 -3.1 L 5.55 -3.1 L 5.55 -3.1 L 7.04999999999544 -3.1 Z " stroke="#191919" stroke-width="0.35 px" style="stroke-width:0.35;stroke-miterlimit:4;stroke-dasharray:none;fill:#cccccc;fill-opacity:1.0;fill-rule: evenodd"/>
<path id="Feature_f0141"  d="M 2.94999999999544 -3.1 L 2.94999999999544 -3.1 L 2.94999999999973 2.7 L 2.94999999999973 2.7 L 2.94999999999544 -3.1 Z " stroke="#191919" stroke-width="0.35 px" style="stroke-width:0.35;stroke-miterlimit:4;stroke-dasharray:none;fill:#cccccc;fill-opacity:1.0;fill-rule: evenodd"/>
<path id="Feature_f0142"  d="M 3.49999999999973 2.7 L 3.49999999999973 2.7 L 2.94999999999973 2.7 L 2.94999999999973 2.7 L 3.49999999999973 2.7 Z " stroke="#191919" stroke-width="0.35 px" style="stroke-width:0.35;stroke-miterlimit:4;stroke-dasharray:none;fill:#cccccc;fill-opacity:1.0;fill-rule: evenodd"/>
<path id="Feature_f0143"  d="M 3.49999999999973 3.7 L 3.49999999999973 3.7 L 3.49999999999973 2.7 L 3.49999999999973 2.7 L 3.49999999999973 3.7 Z " stroke="#191919" stroke-width="0.35 px" style="stroke-width:0.35;stroke-miterlimit:4;stroke-dasharray:none;fill:#cccccc;fill-opacity:1.0;fill-rule: evenodd"/>
<path id="Feature_f0144"  d="M 6.49999999999973 3.7 L 6.49999999999973 3.7 L 3.49999999999973 3.7 L 3.49999999999973 3.7 L 6.49999999999973 3.7 Z " stroke="#191919" stroke-width="0.35 px" style="stroke-width:0.35;stroke-miterlimit:4;stroke-dasharray:none;fill:#cccccc;fill-opacity:1.0;fill-rule: evenodd"/>
<path id="Feature_f0145"  d="M 6.49999999999973 2.7 L 6.49999999999973 2.7 L 6.49999999999973 3.7 L 6.49999999999973 3.7 L 6.49999999999973 2.7 Z " stroke="#191919" stroke-width="0.35 px" style="stroke-width:0.35;stroke-miterlimit:4;stroke-dasharray:none;fill:#cccccc;fill-opacity:1.0;fill-rule: evenodd"/>
<path id="Feature_f0146"  d="M 7.04999999999973 2.7 L 7.04999999999973 2.7 L 6.49999999999973 2.7 L 6.49999999999973 2.7 L 7.04999999999973 2.7 Z " stroke="#191919" stroke-width="0.35 px" style="stroke-width:0.35;stroke-miterlimit:4;stroke-dasharray:none;fill:#cccccc;fill-opacity:1.0;fill-rule: evenodd"/>
<path id="Feature_f0147"  d="M 7.04999999999544 -3.1 L 7.04999999999544 -3.1 L 7.04999999999973 2.7 L 7.04999999999973 2.7 L 7.04999999999544 -3.1 Z " stroke="#191919" stroke-width="0.35 px" style="stroke-width:0.35;stroke-miterlimit:4;stroke-dasharray:none;fill:#cccccc;fill-opacity:1.0;fill-rule: evenodd"/>
<circle cx="4.99999999999997" cy="0.0" r="1.3" stroke="#191919" stroke-width="0.35 px" style="stroke-width:0.35;stroke-miterlimit:4;stroke-dasharray:none;fill:#cccccc"/>
<path id="Feature_f0149"  d="M 6.89999999999998 3.90000000000005 L 6.89999999999998 3.90000000000005 L 7.5 3.73923048454138 L 7.5 3.73923048454138 L 6.89999999999998 3.90000000000005 Z " stroke="#191919" stroke-width="0.35 px" style="stroke-width:0.35;stroke-miterlimit:4;stroke-dasharray:none;fill:#cccccc;fill-opacity:1.0;fill-rule: evenodd"/>
<path id="Feature_f0150"  d="M 7.5 -3.1000000000000005 L 7.5 3.06076951545874 L 6.89999999999998 2.90000000000006 L 6.89999999999998 3.90000000000005 L 7.5 3.73923048454138 L 7.5 4.5 L -2.5 4.5 L -2.5 3.73923048454133 L -3.1 3.9 L -3.1 2.9 L -2.5 3.06076951545867 L -2.5 -3.1 L -0.550000000000001 -3.1 L -0.55 6.81074028289652e-17 A 0.55 0.55 0 0 0 0.55 1.02289e-15L 0.549999999999999 -3.1 L 4.45 -3.1 L 4.45 6.81074028289652e-17 A 0.55 0.55 0 0 0 5.55 1.02289e-15L 5.55 -3.1 L 7.5 -3.1 Z " stroke="#191919" stroke-width="0.35 px" style="stroke-width:0.35;stroke-miterlimit:4;stroke-dasharray:none;fill:#cccccc;fill-opacity:1.0;fill-rule: evenodd"/>
<path id="Feature_f0151"  d="M 7.5 -3.1 L 7.5 -2.46233031500393 L -2.5 -2.46233031500393 L -2.5 -3.1 L 7.5 -3.1 Z " stroke="#191919" stroke-width="0.35 px" style="stroke-width:0.35;stroke-miterlimit:4;stroke-dasharray:none;fill:#cccccc;fill-opacity:1.0;fill-rule: evenodd"/>
<path id="Feature_f0152"  d="M 6.89999999999998 2.90000000000006 L 6.89999999999998 2.90000000000006 L 7.5 3.06076951545874 L 7.5 3.06076951545874 L 6.89999999999998 2.90000000000006 Z " stroke="#191919" stroke-width="0.35 px" style="stroke-width:0.35;stroke-miterlimit:4;stroke-dasharray:none;fill:#cccccc;fill-opacity:1.0;fill-rule: evenodd"/>
<path id="Feature_f0153"  d="M 7.5 3.73923048454138 L 7.5 3.06076951545874 L 6.89999999999998 2.90000000000006 L 6.89999999999998 3.90000000000005 L 7.5 3.73923048454138 Z " stroke="#191919" stroke-width="0.35 px" style="stroke-width:0.35;stroke-miterlimit:4;stroke-dasharray:none;fill:#cccccc;fill-opacity:1.0;fill-rule: evenodd"/>
<path id="Feature_f0154"  d="M -2.5 3.73923048454133 L -2.5 3.73923048454133 L -3.1 3.9 L -3.1 3.9 L -2.5 3.73923048454133 Z " stroke="#191919" stroke-width="0.35 px" style="stroke-width:0.35;stroke-miterlimit:4;stroke-dasharray:none;fill:#cccccc;fill-opacity:1.0;fill-rule: evenodd"/>
<path id="Feature_f0155"  d="M -3.1 2.9 L -3.1 3.9 L -2.5 3.73923048454133 L -2.5 3.06076951545867 L -3.1 2.9 Z " stroke="#191919" stroke-width="0.35 px" style="stroke-width:0.35;stroke-miterlimit:4;stroke-dasharray:none;fill:#cccccc;fill-opacity:1.0;fill-rule: evenodd"/>
<path id="Feature_f0156"  d="M -2.5 3.06076951545867 L -2.5 3.06076951545867 L -3.1 2.9 L -3.1 2.9 L -2.5 3.06076951545867 Z " stroke="#191919" stroke-width="0.35 px" style="stroke-width:0.35;stroke-miterlimit:4;stroke-dasharray:none;fill:#cccccc;fill-opacity:1.0;fill-rule: evenodd"/>
<circle cx="4.99999999999997" cy="0.0" r="1.825" stroke="#191919" stroke-width="0.35 px" style="stroke-width:0.35;stroke-miterlimit:4;stroke-dasharray:none;fill:#cccccc"/>
<circle cx="-3.19744231092045e-14" cy="0.0" r="1.825" stroke="#191919" stroke-width="0.35 px" style="stroke-width:0.35;stroke-miterlimit:4;stroke-dasharray:none;fill:#cccccc"/>
<path id="Feature_f0159"  d="M 2.74999999999997 -2.0 L 2.74999999999997 2.0 L 2.74999999999997 2.0 L 2.74999999999997 -2.0 L 2.74999999999997 -2.0 Z " stroke="#191919" stroke-width="0.35 px" style="stroke-width:0.35;stroke-miterlimit:4;stroke-dasharray:none;fill:#cccccc;fill-opacity:1.0;fill-rule: evenodd"/>
<path id="Feature_f0160"  d="M 2.24999999999997 -2.0 L 2.74999999999997 -2.0 L 2.74999999999997 -2.0 L 2.24999999999997 -2.0 L 2.24999999999997 -2.0 Z " stroke="#191919" stroke-width="0.35 px" style="stroke-width:0.35;stroke-miterlimit:4;stroke-dasharray:none;fill:#cccccc;fill-opacity:1.0;fill-rule: evenodd"/>
<path id="Feature_f0161"  d="M 2.24999999999997 2.0 L 2.24999999999997 -2.0 L 2.24999999999997 -2.0 L 2.24999999999997 2.0 L 2.24999999999997 2.0 Z " stroke="#191919" stroke-width="0.35 px" style="stroke-width:0.35;stroke-miterlimit:4;stroke-dasharray:none;fill:#cccccc;fill-opacity:1.0;fill-rule: evenodd"/>
<path id="Feature_f0162"  d="M 2.74999999999997 2.0 L 2.24999999999997 2.0 L 2.24999999999997 2.0 L 2.74999999999997 2.0 L 2.74999999999997 2.0 Z " stroke="#191919" stroke-width="0.35 px" style="stroke-width:0.35;stroke-miterlimit:4;stroke-dasharray:none;fill:#cccccc;fill-opacity:1.0;fill-rule: evenodd"/>
<circle cx="-3.19744231092045e-14" cy="3.0" r="0.5" stroke="#191919" stroke-width="0.35 px" style="stroke-width:0.35;stroke-miterlimit:4;stroke-dasharray:none;fill:#cccccc"/>
<path id="Feature_f0164"  d="M 5.55 -3.1 L 5.55 -3.1 L 5.55 -2.66364708068068e-12 L 5.55 -5.32729416136135e-12 L 5.55 -3.1 Z " stroke="#191919" stroke-width="0.35 px" style="stroke-width:0.35;stroke-miterlimit:4;stroke-dasharray:none;fill:#cccccc;fill-opacity:1.0;fill-rule: evenodd"/>
<path id="Feature_f0165"  d="M -0.55 -3.1 L -0.550000000000001 -3.1 L -0.55 6.81074028289652e-17 L -0.55 6.77314883910348e-17 L -0.55 -3.1 Z " stroke="#191919" stroke-width="0.35 px" style="stroke-width:0.35;stroke-miterlimit:4;stroke-dasharray:none;fill:#cccccc;fill-opacity:1.0;fill-rule: evenodd"/>
<path id="Feature_f0166"  d="M -0.55 6.77314883910348e-17 L -0.55 -3.1 L -2.05000000000456 -3.1 L -2.05000000000027 2.7 L -1.50000000000027 2.7 L -1.50000000000027 3.7 L 1.49999999999973 3.7 L 1.49999999999973 2.7 L 2.04999999999973 2.7 L 2.04999999999544 -3.1 L 0.550000000000001 -3.1 L 0.55 -2.66364708068068e-12 A 0.55 0.55 0 0 1 -0.55 6.73556e-17Z " stroke="#191919" stroke-width="0.35 px" style="stroke-width:0.35;stroke-miterlimit:4;stroke-dasharray:none;fill:#cccccc;fill-opacity:1.0;fill-rule: evenodd"/>
<path id="Feature_f0167"  d="M -2.05000000000456 -3.1 L -2.05000000000456 -3.1 L -2.05000000000027 2.7 L -2.05000000000027 2.7 L -2.05000000000456 -3.1 Z " stroke="#191919" stroke-width="0.35 px" style="stroke-width:0.35;stroke-miterlimit:4;stroke-dasharray:none;fill:#cccccc;fill-opacity:1.0;fill-rule: evenodd"/>
<path id="Feature_f0168"  d="M 2.04999999999544 -3.1 L 2.04999999999544 -3.1 L 2.04999999999973 2.7 L 2.04999999999973 2.7 L 2.04999999999544 -3.1 Z " stroke="#191919" stroke-width="0.35 px" style="stroke-width:0.35;stroke-miterlimit:4;stroke-dasharray:none;fill:#cccccc;fill-opacity:1.0;fill-rule: evenodd"/>
<path id="Feature_f0169"  d="M 0.549999999999999 -3.1 L 0.550000000000001 -3.1 L 0.55 -2.66364708068068e-12 L 0.55 -5.32729416136135e-12 L 0.549999999999999 -3.1 Z " stroke="#191919" stroke-width="0.35 px" style="stroke-width:0.35;stroke-miterlimit:4;stroke-dasharray:none;fill:#cccccc;fill-opacity:1.0;fill-rule: evenodd"/>
<path id="Feature_f0170"  d="M 4.45 -3.1 L 4.45 -3.1 L 4.45 6.81074028289652e-17 L 4.45 6.77314883910348e-17 L 4.45 -3.1 Z " stroke="#191919" stroke-width="0.35 px" style="stroke-width:0.35;stroke-miterlimit:4;stroke-dasharray:none;fill:#cccccc;fill-opacity:1.0;fill-rule: evenodd"/>
<path id="Feature_f0171"  d="M 4.45 6.77314883910348e-17 L 4.45 -3.1 L 2.94999999999544 -3.1 L 2.94999999999973 2.7 L 3.49999999999973 2.7 L 3.49999999999973 3.7 L 6.49999999999973 3.7 L 6.49999999999973 2.7 L 7.04999999999973 2.7 L 7.04999999999544 -3.1 L 5.55 -3.1 L 5.55 -2.66364708068068e-12 A 0.55 0.55 0 0 1 4.45 6.73556e-17Z " stroke="#191919" stroke-width="0.35 px" style="stroke-width:0.35;stroke-miterlimit:4;stroke-dasharray:none;fill:#cccccc;fill-opacity:1.0;fill-rule: evenodd"/>
<circle cx="4.99999999999997" cy="0.0" r="1.3" stroke="#191919" stroke-width="0.35 px" style="stroke-width:0.35;stroke-miterlimit:4;stroke-dasharray:none;fill:#cccccc"/>
<path id="Feature_f0173"  d="M 6.89999999999998 2.90000000000006 L 6.89999999999998 3.90000000000005 L 6.89999999999998 3.90000000000005 L 6.89999999999998 2.90000000000006 L 6.89999999999998 2.90000000000006 Z " stroke="#191919" stroke-width="0.35 px" style="stroke-width:0.35;stroke-miterlimit:4;stroke-dasharray:none;fill:#cccccc;fill-opacity:1.0;fill-rule: evenodd"/>
<path id="Feature_f0174"  d="M 5.55 -2.66364708068068e-12 A 0.55 0.55 0 0 1 4.45 6.73556e-17L 4.45 6.81074028289652e-17 A 0.55 0.55 0 0 0 5.55 1.02289e-15L 5.55 -2.66364708068068e-12 Z " stroke="#191919" stroke-width="0.35 px" style="stroke-width:0.35;stroke-miterlimit:4;stroke-dasharray:none;fill:#cccccc;fill-opacity:1.0;fill-rule: evenodd"/>
<path id="Feature_f0175"  d="M 0.55 -2.66364708068068e-12 A 0.55 0.55 0 0 1 -0.55 6.73556e-17L -0.55 6.81074028289652e-17 A 0.55 0.55 0 0 0 0.55 1.02289e-15L 0.55 -2.66364708068068e-12 Z " stroke="#191919" stroke-width="0.35 px" style="stroke-width:0.35;stroke-miterlimit:4;stroke-dasharray:none;fill:#cccccc;fill-opacity:1.0;fill-rule: evenodd"/>
<path id="Feature_f0176"  d="M -3.1 2.9 L -3.1 3.9 L -3.1 3.9 L -3.1 2.9 L -3.1 2.9 Z " stroke="#191919" stroke-width="0.35 px" style="stroke-width:0.35;stroke-miterlimit:4;stroke-dasharray:none;fill:#cccccc;fill-opacity:1.0;fill-rule: evenodd"/>
<circle cx="-3.26299833713641e-14" cy="0.0" r="1.3" stroke="#191919" stroke-width="0.35 px" style="stroke-width:0.35;stroke-miterlimit:4;stroke-dasharray:none;fill:#cccccc"/>
<path id="Feature_f0178"  d="M 2.24999999999997 2.0 L 2.24999999999997 -2.0 L 2.74999999999997 -2.0 L 2.74999999999997 2.0 L 2.24999999999997 2.0 Z " stroke="#191919" stroke-width="0.35 px" style="stroke-width:0.35;stroke-miterlimit:4;stroke-dasharray:none;fill:#cccccc;fill-opacity:1.0;fill-rule: evenodd"/>
<path id="Feature_f0179"  d="M -1.50000000000027 2.7 L -1.50000000000027 2.7 L -2.05000000000027 2.7 L -2.05000000000027 2.7 L -1.50000000000027 2.7 Z " stroke="#191919" stroke-width="0.35 px" style="stroke-width:0.35;stroke-miterlimit:4;stroke-dasharray:none;fill:#cccccc;fill-opacity:1.0;fill-rule: evenodd"/>
<path id="Feature_f0180"  d="M -1.50000000000027 3.7 L -1.50000000000027 3.7 L -1.50000000000027 2.7 L -1.50000000000027 2.7 L -1.50000000000027 3.7 Z " stroke="#191919" stroke-width="0.35 px" style="stroke-width:0.35;stroke-miterlimit:4;stroke-dasharray:none;fill:#cccccc;fill-opacity:1.0;fill-rule: evenodd"/>
<path id="Feature_f0181"  d="M 1.49999999999973 3.7 L 1.49999999999973 3.7 L -1.50000000000027 3.7 L -1.50000000000027 3.7 L 1.49999999999973 3.7 Z " stroke="#191919" stroke-width="0.35 px" style="stroke-width:0.35;stroke-miterlimit:4;stroke-dasharray:none;fill:#cccccc;fill-opacity:1.0;fill-rule: evenodd"/>
<path id="Feature_f0182"  d="M 1.49999999999973 2.7 L 1.49999999999973 2.7 L 1.49999999999973 3.7 L 1.49999999999973 3.7 L 1.49999999999973 2.7 Z " stroke="#191919" stroke-width="0.35 px" style="stroke-width:0.35;stroke-miterlimit:4;stroke-dasharray:none;fill:#cccccc;fill-opacity:1.0;fill-rule: evenodd"/>
<path id="Feature_f0183"  d="M 2.04999999999973 2.7 L 2.04999999999973 2.7 L 1.49999999999973 2.7 L 1.49999999999973 2.7 L 2.04999999999973 2.7 Z " stroke="#191919" stroke-width="0.35 px" style="stroke-width:0.35;stroke-miterlimit:4;stroke-dasharray:none;fill:#cccccc;fill-opacity:1.0;fill-rule: evenodd"/>
<circle cx="-3.26299833713641e-14" cy="0.0" r="1.3" stroke="#191919" stroke-width="0.35 px" style="stroke-width:0.35;stroke-miterlimit:4;stroke-dasharray:none;fill:#cccccc"/>
<title>b'KF301-5.0-02'</title>
</g>
</svg>